<?xml version="1.0" encoding="utf-8"?>
<!-- Generator: Adobe Illustrator 16.0.0, SVG Export Plug-In . SVG Version: 6.00 Build 0)  -->
<!DOCTYPE svg PUBLIC "-//W3C//DTD SVG 1.1//EN" "http://www.w3.org/Graphics/SVG/1.1/DTD/svg11.dtd">
<svg version="1.1" id="Layer_1" xmlns="http://www.w3.org/2000/svg" xmlns:xlink="http://www.w3.org/1999/xlink" x="0px" y="0px"
	 width="532.123px" height="924.401px" viewBox="0 0 532.123 924.401" enable-background="new 0 0 532.123 924.401"
	 xml:space="preserve">
<linearGradient id="SVGID_1_" gradientUnits="userSpaceOnUse" x1="217.8647" y1="341.1021" x2="328.9756" y2="341.1021">
	<stop  offset="0.0909" style="stop-color:#000000"/>
	<stop  offset="0.1031" style="stop-color:#191919"/>
	<stop  offset="0.1296" style="stop-color:#484848"/>
	<stop  offset="0.1584" style="stop-color:#747474"/>
	<stop  offset="0.1887" style="stop-color:#9A9A9A"/>
	<stop  offset="0.2211" style="stop-color:#B9B9B9"/>
	<stop  offset="0.2561" style="stop-color:#D3D3D3"/>
	<stop  offset="0.2948" style="stop-color:#E7E7E7"/>
	<stop  offset="0.339" style="stop-color:#F4F4F4"/>
	<stop  offset="0.3936" style="stop-color:#FDFDFD"/>
	<stop  offset="0.4899" style="stop-color:#FFFFFF"/>
	<stop  offset="0.5477" style="stop-color:#FBFBFB"/>
	<stop  offset="0.6" style="stop-color:#F0F0F0"/>
	<stop  offset="0.6501" style="stop-color:#DEDEDE"/>
	<stop  offset="0.6988" style="stop-color:#C4C4C4"/>
	<stop  offset="0.7467" style="stop-color:#A3A3A3"/>
	<stop  offset="0.7938" style="stop-color:#7A7A7A"/>
	<stop  offset="0.8403" style="stop-color:#494949"/>
	<stop  offset="0.8853" style="stop-color:#121212"/>
	<stop  offset="0.899" style="stop-color:#000000"/>
</linearGradient>
<path opacity="0.15" fill="url(#SVGID_1_)" d="M276.231,632.801c18.694,0,36.511,3.752,52.744,10.537V36.362H217.865v609.48
	C235.57,637.483,255.353,632.801,276.231,632.801z"/>
<path fill="#FFFFFF" d="M0.844,0.23L0,924.401h532.123L532.087,0.23H0.844z M276.259,907.295
	c-76.093,0-137.778-61.686-137.778-137.778c0-59.95,38.294-110.948,91.752-129.892c-0.089-46.172-0.061-92.345-0.061-138.519
	c0-113.229,0.036-290.459-0.033-403.69c-0.013-20.628,16.68-39.513,37.624-42.022c14.079-1.687,25.951,2.431,35.961,11.598
	c7.455,6.828,12.609,15.713,12.738,26.134c0.336,27.268,0.113,118.543,0.113,145.815c0.131,0.001,0.262,0.001,0.393,0.002
	c0,22.044-0.045,44.088,0.008,66.132c0.111,45.397,0.304,90.794,0.396,136.191c0.029,13.943-0.225,27.887-0.23,41.831
	c-0.016,51.599,0.039,103.198-0.038,154.798c56.15,17.405,96.934,69.75,96.934,131.621
	C414.037,845.61,352.352,907.295,276.259,907.295z"/>
<g>
	<path fill-rule="evenodd" clip-rule="evenodd" fill="none" d="M332.087,176.125c0-0.833,0.009-1.666-0.001-2.499
		c-0.331-28.459-0.236-56.931-1.178-85.369c-0.466-14.102-7.708-26.039-17.916-35.236c-15.372-13.851-33.651-18.865-54.174-13.786
		c-25.443,6.297-43.765,30.662-43.758,55.017c0.05,174.99,0.026,349.981,0.026,524.973c0,1.333,0.339,2.789-0.087,3.969
		c-0.534,1.479-1.384,3.392-2.634,3.982c-12.865,6.08-24.731,13.593-35.661,22.764c-15.14,12.704-27.518,27.563-36.864,44.947
		c-9.828,18.28-15.793,37.659-17.917,58.413c-1.861,18.187-0.545,35.962,3.901,53.573c8.497,33.654,26.538,61.184,53.425,83.053
		c25.769,20.96,55.47,31.847,88.341,34.188c12.558,0.894,25.083-0.366,37.54-2.76c39.191-7.53,70.978-27.257,94.828-58.887
		c26.561-35.226,35.989-75.134,29.211-118.874c-4.434-28.612-16.369-53.784-35.022-75.582
		c-15.982-18.675-35.354-33.222-58.337-42.493c-2.895-1.168-3.808-2.608-3.802-5.729c0.106-56.429,0.078-112.858,0.078-169.288
		c0-20.98,0-41.961,0-62.942c0-46.311,0-92.622,0-138.933C332.087,224.458,332.087,200.292,332.087,176.125z M48.819,244.107
		c9.097-0.869,15.13-5.714,15.317-12.569c0.11-4.037-2.468-6.239-4.918-8.688c-0.46-0.46-2.16-0.336-0.409-2.085
		c6.958-6.954,4.136-14.885-5.864-17.31c-5.152-1.25-12.808,1.513-15.34,5.853c-2.742,4.7-1.424,8.794,2.347,12.436
		c0.303,0.292-0.279,2.069-0.911,2.673c-4.893,4.676-5.619,11.621-0.829,15.091C41.26,241.714,45.251,242.619,48.819,244.107z
		 M502.608,530.601c0.629,3.098,1.063,6.705,2.12,10.119c1.817,5.865,6.65,9.396,12.306,9.507
		c5.551,0.107,11.013-3.535,12.994-9.028c2.413-6.69,2.854-13.525,0.66-20.399c-2.099-6.573-7.159-10.612-13.209-10.569
		c-6.29,0.045-11.565,4.298-13.32,11.046C503.421,524.118,503.175,527.086,502.608,530.601z M502.577,415.95
		c0.606,4.012,0.825,7.148,1.586,10.148c1.647,6.495,7.007,11.172,12.93,11.059c5.169-0.099,11.229-2.718,13.583-10.806
		c1.747-5.999,1.891-12.005,0.274-18.044c-1.577-5.896-6.252-10.43-11.385-11.062c-5.999-0.739-11.815,2.021-14.178,7.599
		C503.821,408.54,503.361,412.704,502.577,415.95z M64.697,166.499c-0.91-3.809-1.432-7.946-2.919-11.703
		c-1.702-4.3-4.875-7.298-10.013-7.605c-5.684-0.341-10.599,0.731-13.526,6.184c-4.154,7.735-4.186,15.782-1.385,23.896
		c2.255,6.533,6.192,9.131,13.086,9.056c6.37-0.069,10.373-2.92,12.436-9.354C63.418,173.72,63.88,170.284,64.697,166.499z
		 M102.983,163.933c-0.3-0.038-0.599-0.076-0.898-0.114c0-0.998,0.067-2.001-0.011-2.992c-0.532-6.815-5.337-12.838-10.803-13.584
		c-8.37-1.143-13.591,2.083-16.204,10.291c-2.171,6.82-1.817,13.75,0.419,20.436c1.869,5.589,6.91,8.271,13.188,8.414
		c6.367,0.144,10.698-4.238,12.188-9.045C102.187,173.061,102.323,168.416,102.983,163.933z M87.88,90.102
		c-4.639,0.572-9.049,2.229-11.444,7.32c-3.385,7.19-3.568,14.662-1.339,22.077c2.257,7.504,6.521,10.718,12.937,10.728
		c6.569,0.011,11.033-3.465,13.224-11.091c1.938-6.75,1.852-13.678-0.656-20.295C98.537,93.399,94.25,90.582,87.88,90.102z
		 M87.741,582.229c6.609,0.006,11.856-3.196,13.089-9.403c1.162-5.849,2.009-12.245,0.829-17.954
		c-1.603-7.761-4.081-11.162-12.261-12.007c-5.864-0.605-11.741,2.736-13.765,8.425c-2.786,7.831-3.037,15.933,0.583,23.564
		C78.43,579.518,82.156,582.848,87.741,582.229z M88.44,260.231c-6.421-0.523-10.255,2.95-12.671,8.39
		c-2.807,6.314-2.595,12.957-1.06,19.435c1.864,7.864,6.381,11.433,13.285,11.445c7.048,0.014,11.413-3.333,13.476-11.231
		c1.723-6.599,1.71-13.428-0.821-19.83C98.583,263.214,93.673,259.348,88.44,260.231z M102.878,449.355
		c-0.152-0.018-0.306-0.035-0.458-0.053c-0.115-2.15-0.125-4.313-0.364-6.451c-0.84-7.504-5.752-12.583-12.932-13.485
		c-4.988-0.626-11.489,3.307-13.486,8.924c-2.725,7.664-2.964,15.555,0.411,23.136c2.36,5.302,6.514,8.063,12.608,7.856
		c5.914-0.201,9.766-3.337,11.77-8.396C101.854,457.284,102.103,453.215,102.878,449.355z M502.431,247.721
		c0.881,3.801,1.438,7.715,2.723,11.374c1.794,5.114,5.721,7.802,11.201,8.14c5.894,0.364,10.154-1.959,12.818-7.326
		c3.825-7.706,3.727-15.563,0.88-23.431c-3.527-9.75-15.095-12.054-22.195-4.493C503.748,236.36,502.842,241.806,502.431,247.721z
		 M73.135,507.367c1.12,3.535,2.02,8.431,4.162,12.704c4.252,8.484,18.034,7.389,22.072-0.438c3.785-7.341,3.783-14.87,2.026-22.469
		c-1.528-6.608-6.29-10.616-11.71-10.932c-7.038-0.41-11.804,2.541-14.338,9.584C74.195,499.02,74.014,502.575,73.135,507.367z
		 M502.251,473.773c1.102,4.085,1.827,8.469,3.48,12.47c1.982,4.797,5.881,7.134,11.361,7.063c5.421-0.07,9.608-1.716,12.01-6.826
		c3.519-7.487,3.929-15.071,1.114-22.913c-2.326-6.479-5.119-9.03-11.087-9.439c-7.132-0.487-11.218,1.545-13.83,7.809
		C503.819,465.485,503.325,469.448,502.251,473.773z M502.556,304.474c0.75,3.247,1.29,7.158,2.58,10.804
		c1.934,5.464,7.519,9.174,12.52,8.933c5.707-0.276,10.374-4.02,12.479-9.626c2.406-6.406,2.411-12.868,0.841-19.388
		c-1.606-6.67-6.627-10.86-12.869-10.967c-7.035-0.12-11.927,3.396-13.84,10.317C503.446,297.517,503.194,300.645,502.556,304.474z
		 M73.617,390.221c0.028,6.05,0.324,11.778,3.662,17.112c4.805,7.678,18.006,6.638,21.788-0.25
		c4.22-7.687,4.194-15.639,2.032-23.708c-1.656-6.18-6.078-9.871-11.188-10.144c-7.225-0.386-11.786,2.304-14.361,8.909
		C74.555,384.698,74.241,387.52,73.617,390.221z M103.228,337.644c-1.196-4.461-2.069-9.958-4.146-14.954
		c-3.402-8.184-17.004-8.524-21.6-0.679c-5.285,9.023-5.128,18.474-0.641,27.728c2.278,4.699,6.525,6.687,11.812,6.514
		c5.13-0.168,8.937-2.634,11.082-7.024C101.283,346.061,101.841,342.409,103.228,337.644z M103.212,225.33
		c-1.133-4.943-1.413-10.584-3.7-15.238c-5.016-10.204-18.898-7.83-22.561-0.357c-4.33,8.837-4.354,17.604-0.383,26.442
		c2.09,4.653,6.036,6.845,10.996,7.014c5.164,0.176,9.492-1.836,11.813-6.546C101.007,233.335,101.8,229.614,103.212,225.33z
		 M503.09,134.411c-0.382,0.13-0.765,0.261-1.146,0.392c1.602,4.737,2.726,9.711,4.921,14.155c3.043,6.164,14.117,6.811,19.095,2.18
		c7.443-6.924,7.756-22.986,2.487-30.902c-4.974-7.474-14.275-7.922-20.47-1.407C503.815,123.206,502.849,128.629,503.09,134.411z
		 M502.257,587.141c1.201,4.097,1.857,8.936,3.973,13.018c4.543,8.764,17.454,8.651,22.354,0.076
		c4.26-7.454,4.447-15.29,1.76-23.316c-2.157-6.444-5.602-9.492-11.034-9.688c-7.99-0.288-11.62,1.704-14.335,8.671
		C503.689,579.197,503.266,582.829,502.257,587.141z M502.367,360.82c0.985,4.027,1.521,8.128,3.014,11.845
		c1.996,4.973,5.954,7.505,11.583,7.635c5.786,0.133,9.781-2.23,12.282-7.304c3.526-7.152,3.59-14.544,1.304-22.04
		c-1.959-6.42-5.806-9.644-11.826-10.041c-6.541-0.434-11.011,2.041-13.543,8.362C503.752,352.842,503.31,356.802,502.367,360.82z
		 M502.546,191.574c0.786,3.295,1.322,7.394,2.765,11.145c2.19,5.699,6.795,8.069,13.503,7.788c5.334-0.223,9.324-3.328,11.26-8.797
		c2.304-6.51,2.691-13.113,0.85-19.797c-1.793-6.509-6.536-10.378-12.397-10.729c-7.833-0.468-12.411,4.105-14.263,10.324
		C503.382,184.463,503.192,187.624,502.546,191.574z M64.383,285.957c-0.369-1.92-0.448-3.957-1.16-5.74
		c-2.434-6.094-8.194-8.229-15.695-6.067c-0.727,0.209-1.501,0.256-2.253,0.378c0.303-0.71,0.487-1.504,0.926-2.116
		c2.616-3.646,6.475-5.14,10.688-5.077c3.381,0.051,3.107-1.728,3.262-4.024c0.198-2.96-1.345-3.331-3.623-3.075
		c-1.622,0.182-3.269,0.27-4.855,0.617c-12.768,2.802-18.111,13.766-16.438,25.938c0.973,7.081,6.439,13.705,16.519,12.63
		C59.34,298.608,64.055,293.73,64.383,285.957z M42.757,346.229c0.831,0,1.663-0.001,2.495,0c5.554,0.004,5.635,0.002,5.796,5.778
		c0.059,2.124,0.294,3.267,2.947,3.31c5.878,0.093,5.766,0.27,6.185-5.619c0.085-1.196,1.27-3.218,2.079-3.285
		c2.223-0.186,3.165-1.021,2.572-3.025c-0.435-1.468-1.342-3.817-2.255-3.925c-2.423-0.284-2.521-1.478-2.504-3.29
		c0.048-5.156,0.056-10.314-0.02-15.471c-0.017-1.089-0.519-3.129-0.684-3.117c-3.802,0.268-9.279-0.654-11.058,1.475
		c-5.199,6.225-9.147,13.555-13.138,20.702c-2.447,4.384-0.885,6.454,4.089,6.468C40.428,346.232,41.592,346.229,42.757,346.229z
		 M60.084,554.789c0-2.832,0.054-5.665-0.03-8.494c-0.028-0.935-0.445-2.674-0.629-2.667c-3.682,0.146-9.134-0.92-10.705,1.058
		c-5.369,6.758-9.756,14.401-13.748,22.106c-2.224,4.294-0.717,5.766,4.191,5.797c2.165,0.014,4.351,0.193,6.491-0.035
		c3.945-0.421,6.433,0.253,5.481,5.141c-0.806,4.137,1.857,4.245,5.089,4.423c3.703,0.205,4.021-1.49,3.919-4.391
		c-0.084-2.36-1.223-5.661,3.387-5.416c0.391,0.021,1.277-2.343,1.246-3.581c-0.023-0.93-1.226-2.66-1.774-2.61
		c-3.294,0.299-2.927-1.824-2.917-3.835C60.097,559.786,60.088,557.287,60.084,554.789z M489.087,69.913
		c0-2.164,0.195-4.351-0.062-6.483c-0.206-1.711-0.936-4.787-1.474-4.796c-3.277-0.055-8.104-0.622-9.572,1.231
		c-5.064,6.397-9.191,13.591-13.215,20.74c-2.683,4.768-0.69,7.614,4.67,7.623c2.33,0.004,4.685,0.218,6.984-0.048
		c3.604-0.418,5.369,0.652,4.683,4.549c-0.567,3.221,0.375,4.661,4.135,4.648c3.641-0.012,4.077-1.535,3.892-4.45
		c-0.148-2.351-0.852-5.272,3.401-4.915c0.407,0.034,1.455-2.514,1.416-3.84c-0.029-0.997-1.327-2.789-2.054-2.786
		c-2.717,0.013-2.897-1.431-2.826-3.486C489.158,75.241,489.089,72.575,489.087,69.913z M518.738,58.365
		c-2.161,0-4.378,0.307-6.473-0.068c-3.617-0.646-4.681,1.402-5.02,4.249c-0.565,4.741-1.011,9.5-1.342,14.263
		c-0.032,0.459,1.042,1.347,1.69,1.442c3.077,0.452,6.268,0.364,9.256,1.112c2.982,0.747,5.253,3.198,4.01,6.244
		c-0.798,1.955-3.36,3.782-5.506,4.433c-2.198,0.667-4.999,0.277-7.27-0.466c-2.577-0.843-3.562,0.292-3.851,2.235
		c-0.235,1.591-1.786,3.821,1.592,4.603c6.26,1.448,12.487,2.086,18.236-1.243c7.848-4.545,9.641-15.155,1.456-20.773
		c-2.262-1.553-5.5-1.812-8.351-2.333c-2.042-0.373-3.418-0.433-3.214-3.318c0.213-3.003,1.938-2.49,3.683-2.508
		c2.66-0.025,5.326-0.112,7.979,0.022c2.384,0.121,3.538-0.397,3.569-3.213c0.036-3.353-0.292-5.496-4.473-4.741
		C522.781,58.653,520.733,58.364,518.738,58.365z M489.087,578.549c0-2.16,0.165-4.336-0.054-6.474
		c-0.165-1.613-0.86-4.557-1.25-4.546c-3.449,0.102-8.446-0.529-10.032,1.438c-5.095,6.32-9.146,13.535-13.166,20.649
		c-2.457,4.348-0.356,7.309,4.57,7.311c2.326,0.002,4.672,0.193,6.974-0.042c3.806-0.39,5.681,0.849,4.966,4.918
		c-0.583,3.32,0.55,4.553,4.201,4.574c3.722,0.021,3.987-1.651,3.83-4.49c-0.131-2.356-0.826-5.195,3.286-5.171
		c0.551,0.004,1.481-2.149,1.559-3.348c0.063-0.999-0.943-2.985-1.347-2.953c-4.09,0.336-3.566-2.399-3.542-4.89
		C489.104,583.201,489.087,580.875,489.087,578.549z M49.163,412.227c3.497,0,6.993,0,10.49,0c0.166,0,0.354,0.049,0.496-0.01
		c0.952-0.395,2.426-0.563,2.754-1.263c1.757-3.741-0.222-6.646-4.389-6.695c-2.495-0.03-4.993,0.047-7.489,0.035
		c-0.55-0.003-1.099-0.179-1.647-0.275c0.463-0.349,0.979-0.646,1.382-1.056c4.029-4.106,8.681-7.637,10.663-13.47
		c2.446-7.199-1.156-15.055-8.541-15.938c-4.519-0.54-9.36,0.766-13.932,1.798c-4.072,0.919-1.929,3.638-1.194,5.977
		c1.1,3.501,2.671,0.772,4.031,0.433c0.787-0.195,1.528-0.589,2.275-0.926c3.19-1.439,6.296-0.692,7.852,2.055
		c0.976,1.721,0.418,4.571-0.08,6.773c-0.332,1.467-1.621,2.828-2.74,3.986c-3.584,3.711-7.506,7.121-10.845,11.032
		c-1.411,1.652-1.693,4.268-2.488,6.445c1.637,0.366,3.261,0.949,4.914,1.052C43.494,412.356,46.333,412.229,49.163,412.227z
		 M478.143,493.115c3.499,0,7.006-0.148,10.492,0.051c2.468,0.141,3.488-0.388,3.551-3.167c0.077-3.412-0.378-5.467-4.504-4.827
		c-2.115,0.328-4.324,0.104-6.487,0.03c-0.726-0.024-1.441-0.354-2.161-0.543c0.452-0.413,0.941-0.793,1.35-1.245
		c2.987-3.308,6.544-6.276,8.806-10.024c4.185-6.939,2.69-16.324-5.728-18.788c-4.758-1.393-10.023-1.039-14.993,1.371
		c-3.383,1.641-2.384,3.207-1.587,5.745c1.177,3.752,2.736,1.292,4.263,0.654c3.529-1.472,7.533-2.498,10.066,0.838
		c2.451,3.227,0.823,6.947-1.604,9.969c-0.725,0.904-1.628,1.666-2.46,2.482c-3.565,3.497-7.358,6.8-10.582,10.588
		c-1.161,1.364-1.109,3.886-1.188,5.896c-0.011,0.272,2.442,0.86,3.772,0.924C472.141,493.209,475.144,493.113,478.143,493.115z
		 M489.087,126.479c0-1.996,0.182-4.013-0.054-5.98c-0.211-1.761-0.891-4.962-1.347-4.959c-3.479,0.022-8.539-0.605-10.135,1.369
		c-5.012,6.206-8.932,13.347-12.855,20.359c-2.455,4.389-0.617,6.944,4.367,6.959c2.494,0.008,5.021,0.255,7.476-0.056
		c3.819-0.483,5.188,0.994,4.553,4.673c-0.573,3.323,0.538,4.542,4.196,4.568c3.723,0.026,3.992-1.623,3.838-4.465
		c-0.127-2.338-0.865-5.255,3.377-4.931c0.427,0.032,1.473-2.495,1.442-3.816c-0.022-0.999-1.33-2.822-2.021-2.802
		c-2.746,0.083-2.924-1.383-2.855-3.438C489.152,131.47,489.089,128.973,489.087,126.479z M501.087,21.31
		c-0.815,9.021,4.513,16.672,12.373,18.538c4.634,1.1,9.714,0.189,14.572,0.502c4.68,0.301,3.085-2.624,3.108-5.086
		c0.04-4.142-2.516-2.108-4.316-2.063c-2.165,0.055-4.366,0.264-6.492-0.028c-4.346-0.597-7.62-2.812-9.206-7.098
		c-1.919-5.185-1.414-10.205,2.141-14.375c3.641-4.271,8.593-5.482,13.887-3.423c3.877,1.509,3.508-1.239,4.479-3.428
		c1.462-3.297-0.844-3.946-2.781-4.303C513.504-2.278,499.932,6.026,501.087,21.31z M477.03,550.69
		c2.583-0.915,6.302-1.727,9.512-3.473c7.332-3.99,7.442-12.691,0.328-16.965c-2.086-1.253-2.556-1.679-0.171-3.128
		c3.36-2.042,4.118-5.356,3.446-9.084c-0.7-3.886-3.312-5.668-6.854-6.889c-5.007-1.726-9.707-0.794-14.469,0.767
		c-2.278,0.747-2.736,1.684-2.222,4.352c0.854,4.43,3.201,2.523,5.274,1.921c3.47-1.01,7.033-1.8,9.047,2.073
		c1.385,2.664-1.214,5.174-6.791,5.787c-2.891,0.317-3.02,1.458-3.094,3.686c-0.101,3.06,1.96,2.317,3.676,2.526
		c1.453,0.178,3.275,0.21,4.21,1.083c1.387,1.295,2.912,3.278,2.905,4.962c-0.005,1.331-2.126,3.636-3.488,3.778
		c-3.099,0.325-6.322-0.322-9.469-0.761c-1.563-0.218-2.236-0.43-3.051,1.629c-1.515,3.83-0.518,5.529,3.226,6.233
		C471.299,549.612,473.551,550.036,477.03,550.69z M477.41,170.729c-3.029,0.669-6.063,1.314-9.086,2.013
		c-2.01,0.464-2.288,1.602-1.977,3.649c0.706,4.633,3.119,3.131,6.097,2.575c2.467-0.46,5.276,0.421,7.801,1.161
		c0.513,0.149,0.935,3.192,0.54,3.421c-2.006,1.162-4.261,2.407-6.491,2.537c-2.731,0.158-3.342,1.118-3.258,3.567
		c0.076,2.2,0.063,3.967,3.112,3.632c1.423-0.156,3.013,0.049,4.354,0.553c2.569,0.964,4.528,3.087,3.377,5.721
		c-0.715,1.638-3.133,3.084-5.032,3.505c-2.127,0.472-4.545-0.56-6.813-0.451c-1.285,0.062-3.155-3.544-3.972,0.469
		c-0.494,2.425-2.553,5.081,1.729,6.331c5.899,1.722,11.802,2.048,17.418-0.493c6.931-3.136,8.813-10.813,4.244-15.826
		c-3.162-3.471-3.131-3.449-0.397-7.475c0.531-0.782,0.859-1.772,1.037-2.713C491.48,175.588,486.77,171.23,477.41,170.729z
		 M49.08,525.228c3.499,0,7.01-0.177,10.494,0.054c2.934,0.194,3.582-0.973,3.604-3.707c0.023-2.898-1.011-3.854-3.771-3.683
		c-2.655,0.165-5.329,0.099-7.993,0.04c-0.686-0.015-1.364-0.38-2.046-0.584c0.436-0.439,0.878-0.872,1.306-1.318
		c3.964-4.146,8.777-7.509,10.673-13.426c2.294-7.162-0.417-13.318-7.475-15.645c-4.957-1.634-9.692-0.609-14.478,1.139
		c-3.73,1.362-2.763,3.548-1.846,6.112c1.211,3.385,2.938,1.079,4.514,0.523c0.93-0.328,1.919-1.126,2.75-0.979
		c2.424,0.433,5.363,0.611,6.968,2.105c1.128,1.051,0.881,4.213,0.365,6.204c-0.463,1.786-1.957,3.425-3.301,4.838
		c-3.674,3.861-7.689,7.412-11.183,11.422c-1.226,1.405-1.328,3.79-1.942,5.728c1.454,0.393,2.894,1.036,4.365,1.123
		C43.075,525.352,46.081,525.228,49.08,525.228z M49.148,129.226c3.658,0,7.332-0.208,10.971,0.063
		c3.205,0.237,2.953-1.656,2.994-3.746c0.039-2.05-0.082-3.576-2.848-3.362c-2.811,0.217-5.651,0.063-8.478,0.034
		c-0.634-0.007-1.266-0.174-1.898-0.268c0.326-0.665,0.522-1.445,0.998-1.977c2.981-3.326,6.541-6.262,8.948-9.953
		c6.086-9.337,0.461-19.714-10.622-19.663c-3.484,0.016-6.989,1.401-10.438,2.335c-3.064,0.828-2.136,2.998-1.519,5.084
		c0.823,2.785,2.396,2.377,4.407,1.344c1.131-0.58,2.526-1.197,3.697-1.034c2.284,0.318,5.594,0.519,6.457,1.971
		c1.078,1.813,0.968,5.341-0.149,7.229c-1.98,3.347-5.037,6.083-7.777,8.947c-2.179,2.276-4.83,4.15-6.738,6.615
		c-1.072,1.385-1.061,3.607-1.537,5.453c1.351,0.311,2.692,0.832,4.054,0.889C42.825,129.32,45.988,129.229,49.148,129.226z
		 M77.09,52.811c0,5.66-0.073,11.322,0.063,16.98c0.027,1.111,0.575,2.819,1.381,3.201c4.288,2.032,7.494-0.146,7.567-4.801
		c0.055-3.464-1.049-8.146,0.74-10.037c1.716-1.814,6.506-1.012,9.921-0.851c3.547,0.167,3.926-1.433,4.059-4.479
		c0.158-3.612-1.649-3.729-4.257-3.619c-2.492,0.105-5.009-0.156-7.487,0.062c-3.625,0.318-3.106-2.143-2.948-4.212
		c0.151-1.994-1.307-5.037,2.854-4.854c3.323,0.147,6.679-0.206,9.982,0.089c3.331,0.297,2.759-1.766,2.827-3.726
		c0.066-1.941,0.277-3.502-2.65-3.4c-6.319,0.219-12.653,0.154-18.977,0.021c-2.399-0.051-3.179,0.768-3.119,3.142
		C77.184,41.82,77.09,47.316,77.09,52.811z M478.303,266.435c3.162,0,6.323-0.022,9.484,0.007c2.359,0.022,4.437,0.414,4.445-3.374
		c0.009-3.675-1.577-4.102-4.463-3.866c-1.818,0.148-3.659,0.063-5.488,0.015c-1.129-0.03-2.254-0.189-3.381-0.291
		c0.836-0.845,1.669-1.692,2.509-2.532c1.646-1.648,3.399-3.203,4.926-4.955c4.422-5.075,6.642-10.87,3.771-17.358
		c-3.793-8.574-17.017-7.875-23.672-2.925c-0.721,0.536,0.564,3.857,1.113,5.834c0.04,0.142,1.81,0.091,2.553-0.298
		c4.047-2.115,9.376-2.253,11.006,0.16c2.604,3.854,0.333,7.186-1.637,10.437c-0.335,0.553-0.902,0.973-1.388,1.427
		c-3.755,3.515-7.709,6.846-11.169,10.63c-1.212,1.326-1.452,3.748-1.562,5.701c-0.021,0.388,2.555,1.229,3.971,1.327
		C472.303,266.581,475.308,266.436,478.303,266.435z M17.084,166.719c0-5.488-0.108-10.979,0.049-16.463
		c0.071-2.46-0.897-3.626-3.149-2.968c-4.323,1.263-8.713,2.536-12.692,4.559c-0.884,0.449-0.181,4.02-0.209,6.152
		c1.169-0.209,2.496-0.135,3.478-0.682c3.025-1.684,3.842-0.959,3.746,2.453c-0.214,7.645,0.162,15.308-0.151,22.944
		c-0.173,4.225,2.418,3.374,4.823,3.538c2.65,0.182,4.393-0.056,4.188-3.574C16.857,177.375,17.086,172.041,17.084,166.719z
		 M485.087,304.474c0-4.159,0-8.317,0-12.476c-0.001-7.26-2.457-8.883-9.558-6.211c-1.686,0.635-3.195,1.843-4.914,2.264
		c-4.065,0.998-2.899,3.973-2.184,6.2c1.073,3.341,3.192,0.87,4.599,0.127c3.089-1.63,3.107,0.018,3.083,2.368
		c-0.074,7.151,0.121,14.309-0.089,21.455c-0.104,3.535,0.376,5.257,4.692,5.213c4.091-0.043,4.607-1.585,4.431-4.972
		C484.905,313.798,485.087,309.131,485.087,304.474z M485.087,417.382c0-4.988-0.245-9.991,0.081-14.958
		c0.24-3.661-1.19-4.913-4.487-4.164c-3.313,0.753-6.52,1.981-9.834,2.736c-3.961,0.901-3.168,3.774-2.484,6.176
		c0.962,3.376,3.112,1.104,4.612,0.406c2.676-1.245,3.215-0.41,3.164,2.287c-0.146,7.811,0.092,15.63-0.11,23.438
		c-0.095,3.685,2.282,3.008,4.288,2.875c1.971-0.13,4.958,1.359,4.812-2.839C484.943,428.027,485.083,422.702,485.087,417.382z
		 M17.086,110.408c0-4.991-0.151-9.989,0.057-14.972c0.128-3.056-0.553-4.985-3.995-4.166c-3.438,0.818-6.805,1.945-10.193,2.967
		c-3.504,1.057-3.382,3.37-2.229,6.189c1.464,3.579,3.271,0.743,4.519,0.084c2.953-1.558,3.064-0.225,3.033,2.214
		c-0.097,7.651,0.172,15.314-0.128,22.956c-0.138,3.51,1.47,3.804,4.129,3.563c2.282-0.206,5.146,0.971,4.881-3.368
		C16.844,120.738,17.085,115.565,17.086,110.408z M144.005,409.893c0-0.005,0-0.01,0-0.015c7.981,0,15.966,0.098,23.942-0.117
		c1.061-0.028,2.078-1.638,3.116-2.516c-1.02-0.671-2.035-1.92-3.06-1.928c-15.963-0.124-31.927-0.072-47.891-0.105
		c-1.869-0.004-3.619,0.202-2.893,2.573c0.277,0.907,1.842,1.995,2.841,2.016C128.04,409.965,136.023,409.893,144.005,409.893z
		 M402.337,373.393c-7.8,0-15.6-0.008-23.399,0.006c-1.735,0.003-3.79-0.63-3.864,2.353c-0.076,3.024,2.028,2.46,3.743,2.462
		c15.6,0.024,31.199,0.011,46.799,0.02c1.857,0.001,4.115,0.213,3.323-2.613c-0.27-0.966-2.076-2.102-3.205-2.129
		C417.938,373.306,410.137,373.394,402.337,373.393z M402.046,605.105c7.777,0,15.555,0.021,23.332-0.017
		c1.641-0.009,3.728,0.855,3.766-2.307c0.036-3.017-1.869-2.544-3.636-2.545c-15.611-0.01-31.222-0.005-46.832-0.008
		c-1.86,0-4.149-0.166-3.416,2.63c0.255,0.975,2.172,2.119,3.354,2.148C386.421,605.198,394.234,605.106,402.046,605.105z
		 M144.253,575.352c-7.824,0-15.648-0.018-23.473,0.014c-1.661,0.007-3.729-0.819-3.751,2.335c-0.021,3.037,1.921,2.518,3.669,2.52
		c15.637,0.014,31.274,0.054,46.91-0.087c1.158-0.011,3.043-1.155,3.316-2.13c0.76-2.702-1.301-2.691-3.301-2.675
		C159.835,575.394,152.044,575.356,144.253,575.352z M401.579,151.222c8.312,0,16.624,0.075,24.932-0.111
		c0.871-0.02,1.708-1.583,2.562-2.431c-0.791-0.707-1.577-2.026-2.372-2.032c-16.124-0.112-32.248-0.125-48.371,0.045
		c-1.081,0.012-2.146,1.63-3.218,2.501c1.176,0.679,2.339,1.915,3.53,1.943C386.284,151.315,393.933,151.228,401.579,151.222z
		 M144.051,353.228c7.662,0,15.326,0.1,22.983-0.093c1.358-0.034,3.656-1.076,3.855-2.008c0.701-3.284-2.095-2.597-3.926-2.602
		c-15.466-0.04-30.933-0.068-46.397,0.064c-1.159,0.01-3.05,1.069-3.322,2.012c-0.816,2.821,1.436,2.637,3.312,2.633
		C128.388,353.218,136.22,353.227,144.051,353.228z M143.625,126.228c7.828,0,15.656,0.057,23.483-0.048
		c1.524-0.021,4.323,1.059,3.766-2.102c-0.17-0.963-2.483-2.193-3.826-2.207c-15.654-0.157-31.312-0.141-46.967-0.024
		c-0.996,0.007-2.598,1.029-2.858,1.898c-0.733,2.438,1.107,2.508,2.918,2.498C127.969,126.205,135.797,126.227,143.625,126.228z
		 M143.145,182.547c0-0.006,0-0.011,0-0.017c8.3,0,16.603,0.077,24.898-0.099c1.018-0.021,2.007-1.39,3.01-2.134
		c-1.011-0.689-2.018-1.97-3.033-1.978c-15.936-0.127-31.873-0.126-47.809-0.008c-1.04,0.008-2.737,1.017-2.98,1.882
		c-0.709,2.532,1.285,2.371,3.006,2.364C127.872,182.531,135.509,182.547,143.145,182.547z M143.641,466.229
		c7.829,0,15.658,0.057,23.485-0.05c1.515-0.021,4.262,1.095,3.756-2.102c-0.125-0.787-2.348-1.759-3.612-1.77
		c-15.49-0.121-30.982-0.122-46.472,0.005c-1.23,0.011-2.45,1.202-3.675,1.845c1.177,0.69,2.341,1.949,3.533,1.978
		C128.314,466.317,135.979,466.228,143.641,466.229z M144.09,239.229c7.662,0,15.325,0.06,22.985-0.052
		c1.509-0.021,4.24,1.128,3.806-2.053c-0.106-0.779-2.313-1.804-3.562-1.813c-15.49-0.124-30.981-0.124-46.471,0
		c-1.247,0.01-3.452,1.041-3.557,1.819c-0.426,3.18,2.306,2.024,3.813,2.047C128.765,239.289,136.428,239.229,144.09,239.229z
		 M401.923,434.228c7.832,0,15.665,0.084,23.493-0.087c1.225-0.026,2.424-1.213,3.635-1.863c-1.185-0.683-2.365-1.949-3.556-1.959
		c-15.662-0.133-31.326-0.134-46.987,0.008c-1.135,0.01-2.257,1.386-3.385,2.126c1.102,0.593,2.194,1.678,3.307,1.698
		C386.259,434.3,394.091,434.23,401.923,434.228z M143.835,296.229c7.829,0,15.659,0.082,23.484-0.084
		c1.256-0.026,2.488-1.165,3.731-1.789c-1.159-0.709-2.313-2.024-3.477-2.034c-15.656-0.137-31.314-0.137-46.971,0
		c-1.166,0.01-2.32,1.323-3.48,2.03c1.242,0.625,2.473,1.765,3.728,1.793C128.509,296.313,136.173,296.229,143.835,296.229z
		 M401.86,491.228c7.828,0,15.659,0.083,23.484-0.085c1.248-0.026,2.472-1.18,3.706-1.812c-1.166-0.7-2.328-2.001-3.5-2.011
		c-15.656-0.136-31.314-0.136-46.971,0.002c-1.158,0.011-2.305,1.338-3.457,2.054c1.25,0.617,2.489,1.741,3.752,1.769
		C386.534,491.312,394.198,491.228,401.86,491.228z M401.816,321.227c7.995,0,15.992,0.07,23.984-0.082
		c1.095-0.021,2.167-1.152,3.251-1.77c-0.986-0.715-1.967-2.044-2.958-2.052c-15.989-0.13-31.98-0.13-47.97-0.002
		c-1.006,0.008-2.001,1.311-3.001,2.011c1.069,0.631,2.128,1.788,3.209,1.81C386.157,321.299,393.987,321.226,401.816,321.227z
		 M402.326,544.229c-7.831,0-15.663-0.082-23.49,0.084c-1.25,0.026-2.476,1.166-3.712,1.791c1.159,0.708,2.313,2.021,3.479,2.031
		c15.66,0.138,31.322,0.138,46.982,0c1.161-0.01,2.312-1.333,3.467-2.046c-1.244-0.62-2.479-1.749-3.735-1.776
		C417.656,544.146,409.99,544.229,402.326,544.229z M144.05,523.228c7.828,0,15.659,0.087,23.483-0.094
		c1.188-0.027,2.346-1.298,3.518-1.993c-1.063-0.637-2.123-1.82-3.191-1.828c-15.823-0.119-31.647-0.118-47.471-0.003
		c-1.093,0.008-2.177,1.145-3.266,1.757c1.146,0.721,2.279,2.037,3.443,2.064C128.391,523.317,136.221,523.228,144.05,523.228z
		 M402.279,203.23c-7.806,0-15.613-0.082-23.416,0.083c-1.259,0.026-3.428,0.985-3.575,1.801c-0.562,3.129,2.199,2.215,3.714,2.224
		c15.611,0.088,31.224,0.097,46.834-0.021c1.077-0.008,2.146-1.2,3.218-1.843c-1.119-0.747-2.223-2.115-3.359-2.143
		C417.894,203.14,410.085,203.231,402.279,203.23z M401.845,264.229c7.829,0,15.66,0.082,23.486-0.085
		c1.252-0.026,2.48-1.169,3.72-1.796c-1.16-0.706-2.314-2.017-3.48-2.026c-15.658-0.137-31.317-0.137-46.975,0
		c-1.164,0.01-2.315,1.328-3.474,2.038c1.245,0.623,2.479,1.758,3.735,1.785C386.517,264.313,394.182,264.229,401.845,264.229z
		 M57.213,50.002c4.977-0.054,9.027-4.274,8.872-9.244c-0.145-4.603-4.457-8.637-9.11-8.523c-4.896,0.12-9.01,4.404-8.886,9.255
		C48.208,46.165,52.379,50.055,57.213,50.002z M482.582,0.23c-5.064-0.021-9.629,4.176-9.469,8.706
		c0.157,4.43,4.531,8.295,9.385,8.292c5.447-0.003,8.598-3.084,8.645-8.454C491.189,3.378,488.057,0.251,482.582,0.23z
		 M447.104,417.49c-1.496,0-3.005,0.126-4.484-0.028c-2.555-0.265-3.574,0.672-3.593,3.324c-0.02,2.646,1.023,3.541,3.545,3.43
		c2.818-0.124,5.653-0.123,8.472,0.02c2.66,0.136,4.274-0.125,4.168-3.617c-0.102-3.344-1.778-3.323-4.121-3.147
		C449.769,417.569,448.433,417.488,447.104,417.49z M17.579,506.36c-0.989,0-1.979,0.026-2.968-0.005
		c-2.471-0.077-4.763-0.62-4.669,3.487c0.088,3.857,2.254,3.202,4.507,3.188c2.639-0.015,5.284-0.113,7.915,0.03
		c2.43,0.134,3.617-0.506,3.586-3.259c-0.029-2.55-0.825-3.662-3.425-3.457C20.887,506.474,19.229,506.369,17.579,506.36z
		 M152.588,381.115c4.65,0,9.303,0.081,13.947-0.075c0.828-0.028,1.624-1.045,2.435-1.605c-0.758-0.398-1.512-1.138-2.272-1.145
		c-8.967-0.082-17.935-0.094-26.901,0.005c-0.883,0.01-1.755,0.876-2.633,1.345c0.99,0.49,1.965,1.364,2.973,1.403
		C144.281,381.203,148.437,381.11,152.588,381.115z M447.13,480.227c1.495,0,2.998-0.092,4.484,0.021
		c2.362,0.18,3.611-0.344,3.562-3.189c-0.046-2.687-1.319-2.916-3.398-2.853c-3.153,0.095-6.316,0.115-9.468-0.006
		c-2.183-0.084-3.33,0.359-3.298,2.948c0.029,2.381,0.746,3.32,3.137,3.106C443.796,480.107,445.469,480.227,447.13,480.227z
		 M153.04,494.221c4.497,0,8.998,0.079,13.49-0.07c0.843-0.028,1.654-0.976,2.48-1.499c-0.711-0.47-1.418-1.342-2.135-1.349
		c-9.161-0.093-18.323-0.093-27.484-0.006c-0.742,0.007-1.478,0.822-2.216,1.262c0.79,0.554,1.565,1.558,2.373,1.586
		C144.042,494.301,148.542,494.22,153.04,494.221z M153.073,267.227c4.332,0,8.667,0.098,12.991-0.073
		c0.999-0.04,1.962-0.999,2.941-1.535c-0.888-0.462-1.771-1.314-2.663-1.324c-8.828-0.101-17.658-0.101-26.486-0.002
		c-0.899,0.01-1.79,0.847-2.686,1.3c0.97,0.545,1.922,1.521,2.912,1.56C144.407,267.325,148.742,267.226,153.073,267.227z
		 M153.17,324.226c4.332,0,8.667,0.101,12.991-0.077c0.964-0.04,1.889-1.059,2.831-1.627c-0.915-0.43-1.826-1.224-2.746-1.233
		c-8.828-0.094-17.658-0.096-26.485,0.009c-0.874,0.011-1.736,0.906-2.604,1.391c0.84,0.511,1.666,1.437,2.521,1.465
		C144.172,324.301,148.673,324.222,153.17,324.226z M447.341,531.194c-1.656,0-3.319,0.096-4.968-0.023
		c-2.118-0.154-3.441,0.166-3.345,2.836c0.084,2.313,0.835,3.322,3.203,3.243c3.144-0.104,6.299-0.136,9.438,0.014
		c2.43,0.116,3.55-0.484,3.5-3.245c-0.048-2.617-1.202-3.039-3.359-2.854C450.331,531.29,448.831,531.188,447.341,531.194z
		 M153.021,551.222c4.498,0,8.998,0.079,13.491-0.069c0.85-0.028,1.669-0.964,2.503-1.481c-0.872-0.479-1.739-1.364-2.617-1.375
		c-8.828-0.104-17.658-0.102-26.486-0.007c-0.915,0.01-1.821,0.813-2.732,1.249c0.949,0.563,1.881,1.571,2.851,1.61
		C144.354,551.327,148.689,551.226,153.021,551.222z M152.673,154.217c4.66,0,9.324,0.081,13.979-0.079
		c0.795-0.027,1.555-1.088,2.33-1.671c-0.76-0.409-1.517-1.169-2.28-1.176c-9.153-0.081-18.308-0.082-27.461,0.014
		c-0.7,0.008-1.391,0.913-2.086,1.4c0.68,0.503,1.346,1.422,2.039,1.442C143.684,154.279,148.18,154.215,152.673,154.217z
		 M18.318,569.229c1.159,0,2.323,0.073,3.476-0.017c1.897-0.149,4.274,0.974,4.239-2.866c-0.03-3.448-1.818-3.167-4.025-3.129
		c-2.813,0.049-5.633,0.106-8.442-0.016c-2.33-0.102-3.627,0.308-3.567,3.171c0.056,2.63,1.241,3.005,3.354,2.874
		C15.002,569.145,16.662,569.227,18.318,569.229z M391.841,577.225c4.498,0,8.997,0.074,13.49-0.063
		c0.904-0.027,1.783-0.854,2.674-1.312c-0.809-0.538-1.61-1.534-2.426-1.544c-8.993-0.111-17.988-0.111-26.981,0.001
		c-0.815,0.01-1.618,1.012-2.427,1.553c0.893,0.454,1.773,1.273,2.68,1.303C383.177,577.301,387.511,577.225,391.841,577.225z
		 M447.013,587.231c-1.495,0-2.998,0.101-4.483-0.022c-2.41-0.2-3.564,0.426-3.53,3.222c0.033,2.729,1.386,2.873,3.426,2.818
		c3.154-0.084,6.316-0.119,9.468,0.011c2.22,0.092,3.289-0.429,3.27-2.979c-0.019-2.419-0.817-3.278-3.167-3.075
		C450.346,587.347,448.675,587.232,447.013,587.231z M152.897,607.947c4.492,0,8.986,0.082,13.473-0.07
		c0.875-0.03,1.719-0.973,2.577-1.493c-0.77-0.383-1.535-1.091-2.308-1.098c-8.982-0.078-17.966-0.09-26.948,0.014
		c-0.842,0.01-1.673,0.922-2.509,1.416c0.913,0.409,1.817,1.144,2.741,1.171C144.246,608.011,148.573,607.942,152.897,607.947z
		 M391.587,294.222c4.64,0,9.282,0.076,13.918-0.068c0.852-0.027,1.676-0.948,2.514-1.457c-0.859-0.487-1.704-1.366-2.578-1.396
		c-4.304-0.148-8.615-0.074-12.924-0.071c-4.64,0.004-9.283-0.075-13.915,0.113c-0.804,0.032-1.56,1.211-2.338,1.861
		c0.8,0.339,1.593,0.954,2.398,0.973C382.969,294.275,387.278,294.223,391.587,294.222z M392.149,461.231
		c-4.332,0-8.665-0.063-12.993,0.051c-0.951,0.024-1.885,0.68-2.827,1.045c0.983,0.632,1.958,1.797,2.951,1.813
		c8.827,0.142,17.658,0.111,26.487,0.021c0.747-0.008,1.485-0.813,2.229-1.247c-0.784-0.559-1.553-1.573-2.355-1.602
		C401.148,461.157,396.647,461.238,392.149,461.231z M392.223,125.139c0-0.01,0-0.019,0-0.028c4.302,0,8.607,0.093,12.903-0.07
		c0.975-0.037,1.916-0.963,2.873-1.479c-0.896-0.442-1.787-1.26-2.688-1.271c-8.768-0.097-17.538-0.094-26.307-0.008
		c-0.922,0.009-1.838,0.73-2.756,1.122c1.022,0.578,2.025,1.609,3.071,1.655C383.614,125.25,387.921,125.139,392.223,125.139z
		 M392.325,238.226c4.308,0,8.617,0.073,12.921-0.058c0.927-0.028,1.83-0.791,2.744-1.215c-0.928-0.574-1.85-1.633-2.786-1.646
		c-8.778-0.127-17.561-0.112-26.34-0.018c-0.886,0.01-1.763,0.818-2.644,1.256c0.896,0.557,1.773,1.56,2.688,1.594
		C383.376,238.306,387.853,238.215,392.325,238.226z M153.054,437.223c4.477,0,8.954,0.049,13.429-0.045
		c0.813-0.017,1.613-0.616,2.42-0.947c-0.834-0.541-1.661-1.541-2.502-1.552c-9.117-0.122-18.237-0.11-27.355-0.051
		c-0.613,0.004-1.222,0.692-1.833,1.063c0.639,0.509,1.265,1.439,1.917,1.458C143.768,437.276,148.411,437.216,153.054,437.223z
		 M391.965,181.216c4.641,0,9.284,0.06,13.922-0.063c0.72-0.02,1.417-0.875,2.124-1.344c-0.652-0.522-1.301-1.491-1.959-1.498
		c-9.116-0.099-18.234-0.111-27.35,0.018c-0.828,0.012-1.641,1.142-2.46,1.752c0.931,0.382,1.854,1.066,2.794,1.093
		C383.343,181.292,387.654,181.226,391.965,181.216z M391.586,348.231c-4.14,0-8.281-0.063-12.418,0.046
		c-0.974,0.026-1.931,0.631-2.896,0.969c0.951,0.659,1.894,1.873,2.855,1.89c8.774,0.147,17.553,0.128,26.328,0.023
		c0.86-0.011,1.709-0.919,2.563-1.41c-0.841-0.504-1.669-1.418-2.525-1.444C400.862,348.16,396.223,348.236,391.586,348.231z
		 M391.662,520.252c0-0.01,0-0.019,0-0.028c4.801,0,9.603,0.037,14.401-0.044c0.641-0.011,1.271-0.618,1.906-0.949
		c-0.535-0.438-1.067-1.256-1.605-1.26c-9.435-0.059-18.87-0.041-28.305,0.058c-0.586,0.006-1.162,0.81-1.743,1.243
		c0.646,0.326,1.286,0.925,1.938,0.937C382.723,520.292,387.192,520.252,391.662,520.252z M391.838,407.23c0-0.005,0-0.01,0-0.015
		c4.807,0,9.614,0.041,14.419-0.053c0.574-0.011,1.134-0.749,1.7-1.15c-0.569-0.396-1.138-1.138-1.709-1.141
		c-9.281-0.047-18.563-0.031-27.844,0.091c-0.701,0.01-1.39,0.938-2.085,1.44c0.697,0.276,1.392,0.779,2.094,0.791
		C382.887,407.266,387.363,407.23,391.838,407.23z M153.094,210.234c4.471,0,8.942,0.052,13.411-0.048
		c0.791-0.018,1.567-0.661,2.351-1.016c-0.766-0.428-1.528-1.22-2.299-1.229c-9.105-0.096-18.213-0.105-27.318-0.022
		c-0.685,0.007-1.36,0.89-2.04,1.365c0.662,0.313,1.32,0.886,1.988,0.896C143.821,210.26,148.458,210.223,153.094,210.234z"/>
	<path fill-rule="evenodd" clip-rule="evenodd" d="M332.087,176.125c0,24.167,0,48.333,0,72.499c0,46.311,0,92.622,0,138.933
		c0,20.981,0,41.962,0,62.942c0,56.43,0.028,112.859-0.078,169.288c-0.006,3.121,0.907,4.562,3.802,5.729
		c22.983,9.271,42.354,23.818,58.337,42.493c18.653,21.798,30.589,46.97,35.022,75.582c6.778,43.74-2.65,83.648-29.211,118.874
		c-23.851,31.63-55.637,51.356-94.828,58.887c-12.457,2.394-24.982,3.653-37.54,2.76c-32.871-2.341-62.572-13.228-88.341-34.188
		c-26.887-21.869-44.928-49.398-53.425-83.053c-4.446-17.611-5.763-35.387-3.901-53.573c2.124-20.754,8.089-40.133,17.917-58.413
		c9.347-17.384,21.725-32.243,36.864-44.947c10.93-9.171,22.796-16.684,35.661-22.764c1.25-0.591,2.1-2.503,2.634-3.982
		c0.426-1.18,0.087-2.636,0.087-3.969c0-174.991,0.023-349.982-0.026-524.973c-0.007-24.354,18.314-48.72,43.758-55.017
		c20.522-5.079,38.802-0.064,54.174,13.786c10.208,9.197,17.45,21.135,17.916,35.236c0.941,28.438,0.847,56.91,1.178,85.369
		C332.096,174.459,332.087,175.292,332.087,176.125z M321.526,180.877c-0.146-0.001-0.29-0.001-0.436-0.002
		c0-30.303,0.247-60.608-0.126-90.906c-0.143-11.579-5.87-21.451-14.154-29.038c-11.122-10.186-24.313-14.761-39.956-12.887
		c-23.271,2.788-41.818,23.771-41.805,46.691c0.077,125.812,0.037,251.623,0.037,377.434c0,51.491-0.031,102.982,0.068,154.474
		c0.007,3.48-0.542,5.31-4.289,6.81c-22.399,8.967-41.334,22.99-56.783,41.44c-19.898,23.763-31.265,51.359-33.819,82.186
		c-1.466,17.693,0.2,35.344,5.422,52.517c9.218,30.312,25.973,55.365,51.069,74.902c23.58,18.356,50.348,28.32,79.913,30.589
		c12.876,0.988,25.776-0.019,38.557-2.749c37.38-7.986,67.498-27.239,89.686-58.225c23.433-32.725,31.345-69.317,25.217-109.088
		c-4.49-29.133-17.042-54.401-36.835-75.894c-15.993-17.367-35.353-30.155-57.8-37.938c-2.682-0.93-3.82-2.213-3.815-5.288
		c0.09-57.916,0.025-115.831,0.044-173.747c0.006-15.492,0.287-30.985,0.256-46.478c-0.104-50.441-0.317-100.882-0.44-151.323
		C321.477,229.864,321.526,205.371,321.526,180.877z"/>
	<path fill-rule="evenodd" clip-rule="evenodd" d="M48.819,244.107c-3.568-1.488-7.56-2.393-10.607-4.6
		c-4.79-3.47-4.063-10.415,0.829-15.091c0.632-0.604,1.214-2.381,0.911-2.673c-3.771-3.642-5.089-7.735-2.347-12.436
		c2.532-4.34,10.188-7.103,15.34-5.853c10,2.425,12.822,10.355,5.864,17.31c-1.751,1.749-0.051,1.625,0.409,2.085
		c2.45,2.448,5.028,4.65,4.918,8.688C63.949,238.393,57.916,243.238,48.819,244.107z M55.772,232.583
		c-0.882-3.653-4.312-7.115-6.729-6.137c-2.02,0.818-4.061,3.183-4.737,5.297c-0.782,2.444,3.229,5.921,5.733,5.032
		C52.178,236.018,53.879,234.028,55.772,232.583z M55.993,213.67c-3.199-1.778-5.023-3.449-7.047-3.74
		c-2.163-0.311-4.749,1.15-3.689,3.831c0.827,2.092,2.889,4.172,4.924,5.066C50.967,219.173,53.196,216.236,55.993,213.67z"/>
	<path fill-rule="evenodd" clip-rule="evenodd" d="M502.608,530.601c0.566-3.515,0.813-6.483,1.551-9.325
		c1.755-6.748,7.03-11.001,13.32-11.046c6.05-0.043,11.11,3.996,13.209,10.569c2.194,6.874,1.753,13.709-0.66,20.399
		c-1.981,5.493-7.443,9.136-12.994,9.028c-5.655-0.11-10.488-3.642-12.306-9.507C503.671,537.306,503.237,533.699,502.608,530.601z
		 M523.462,530.238c-0.76-3.367-1.175-6.651-2.322-9.656c-0.529-1.386-2.526-3.122-3.79-3.07c-1.377,0.057-3.747,1.933-3.828,3.139
		c-0.417,6.28-0.484,12.616-0.078,18.894c0.084,1.303,2.566,3.111,4.179,3.407c0.972,0.179,2.96-1.9,3.501-3.338
		C522.253,536.606,522.728,533.352,523.462,530.238z"/>
	<path fill-rule="evenodd" clip-rule="evenodd" d="M502.577,415.95c0.784-3.246,1.244-7.41,2.811-11.105
		c2.362-5.577,8.179-8.338,14.178-7.599c5.133,0.632,9.808,5.166,11.385,11.062c1.616,6.039,1.473,12.045-0.274,18.044
		c-2.354,8.088-8.414,10.707-13.583,10.806c-5.923,0.113-11.282-4.563-12.93-11.059C503.402,423.098,503.184,419.961,502.577,415.95
		z M523.438,417.01c-0.739-3.205-1.195-6.662-2.427-9.817c-0.509-1.306-2.646-2.634-4.101-2.7c-1.108-0.051-3.237,1.813-3.31,2.928
		c-0.409,6.297-0.58,12.638-0.229,18.93c0.076,1.351,2.582,3.469,4.072,3.562c1.261,0.077,3.278-2.029,3.882-3.587
		C522.432,423.474,522.74,420.315,523.438,417.01z"/>
	<path fill-rule="evenodd" clip-rule="evenodd" d="M64.697,166.499c-0.817,3.785-1.279,7.222-2.321,10.472
		c-2.063,6.435-6.065,9.285-12.436,9.354c-6.894,0.075-10.831-2.522-13.086-9.056c-2.801-8.113-2.77-16.16,1.385-23.896
		c2.928-5.452,7.843-6.524,13.526-6.184c5.138,0.308,8.311,3.306,10.013,7.605C63.266,158.552,63.787,162.69,64.697,166.499z
		 M43.466,166.76c0.859,3.415,1.446,6.788,2.634,9.934c0.446,1.185,2.287,2.545,3.491,2.543c1.204-0.001,2.984-1.348,3.516-2.546
		c2.916-6.58,2.928-13.342-0.005-19.92c-0.523-1.174-2.319-2.461-3.524-2.457c-1.208,0.003-3.057,1.313-3.492,2.476
		C44.904,159.938,44.324,163.312,43.466,166.76z"/>
	<path fill-rule="evenodd" clip-rule="evenodd" d="M102.983,163.933c-0.66,4.482-0.797,9.128-2.121,13.405
		c-1.489,4.807-5.82,9.188-12.188,9.045c-6.278-0.143-11.319-2.825-13.188-8.414c-2.236-6.686-2.59-13.615-0.419-20.436
		c2.613-8.208,7.834-11.434,16.204-10.291c5.466,0.746,10.271,6.769,10.803,13.584c0.078,0.991,0.011,1.994,0.011,2.992
		C102.385,163.857,102.684,163.895,102.983,163.933z M93.698,166.628c-0.597-3.332-0.889-6.624-1.883-9.688
		c-0.389-1.195-2.35-2.588-3.606-2.6c-1.295-0.012-3.687,1.494-3.733,2.429c-0.328,6.628-0.332,13.286-0.006,19.913
		c0.047,0.952,2.411,2.456,3.729,2.484c1.215,0.026,3.197-1.361,3.559-2.525C92.762,173.411,93.1,169.971,93.698,166.628z"/>
	<path fill-rule="evenodd" clip-rule="evenodd" d="M87.88,90.102c6.37,0.479,10.657,3.297,12.721,8.739
		c2.508,6.617,2.594,13.545,0.656,20.295c-2.19,7.626-6.654,11.102-13.224,11.091c-6.415-0.01-10.68-3.224-12.937-10.728
		c-2.229-7.415-2.046-14.887,1.339-22.077C78.831,92.332,83.241,90.674,87.88,90.102z M93.614,110.219
		c-0.522-3.32-0.783-6.804-1.737-10.086c-0.352-1.207-2.319-2.642-3.592-2.684c-1.21-0.04-3.132,1.343-3.609,2.548
		c-2.631,6.648-2.427,13.518-0.185,20.202c0.439,1.31,2.619,2.684,4.083,2.787c1.093,0.077,2.996-1.65,3.364-2.917
		C92.849,116.949,93.082,113.63,93.614,110.219z"/>
	<path fill-rule="evenodd" clip-rule="evenodd" d="M87.741,582.229c-5.585,0.619-9.312-2.711-11.524-7.375
		c-3.62-7.632-3.369-15.733-0.583-23.564c2.023-5.688,7.9-9.03,13.765-8.425c8.18,0.845,10.658,4.246,12.261,12.007
		c1.18,5.709,0.333,12.105-0.829,17.954C99.598,579.033,94.351,582.235,87.741,582.229z M93.576,562.794
		c-0.438-3-0.5-6.194-1.48-9.075c-0.575-1.689-2.613-2.881-3.994-4.297c-1.35,1.352-3.768,2.629-3.865,4.065
		c-0.423,6.154-0.358,12.368,0.028,18.528c0.071,1.141,2.441,2.954,3.768,2.969c1.341,0.016,3.452-1.563,3.902-2.891
		C92.92,569.191,93.065,566.002,93.576,562.794z"/>
	<path fill-rule="evenodd" clip-rule="evenodd" d="M88.439,260.23c5.233-0.882,10.144,2.984,12.21,8.209
		c2.531,6.402,2.544,13.231,0.821,19.83c-2.063,7.898-6.428,11.245-13.476,11.231c-6.904-0.013-11.421-3.581-13.285-11.445
		c-1.535-6.478-1.747-13.12,1.06-19.435C78.186,263.181,82.02,259.708,88.439,260.23z M93.672,280.559
		c-0.531-3.598-0.61-6.807-1.596-9.706c-0.507-1.488-2.641-3.356-4.025-3.346c-1.356,0.012-3.714,2.077-3.864,3.436
		c-0.611,5.536-0.629,11.147-0.651,16.731c-0.005,1.009,0.85,2.134,1.549,3.013c2.288,2.876,5.172,2.816,6.48-0.52
		C92.795,287.031,93.062,283.516,93.672,280.559z"/>
	<path fill-rule="evenodd" clip-rule="evenodd" d="M102.878,449.355c-0.775,3.86-1.024,7.929-2.451,11.531
		c-2.004,5.059-5.855,8.194-11.77,8.396c-6.095,0.207-10.248-2.555-12.608-7.856c-3.375-7.581-3.136-15.472-0.411-23.136
		c1.997-5.617,8.498-9.55,13.486-8.924c7.18,0.902,12.092,5.981,12.932,13.485c0.239,2.138,0.249,4.301,0.364,6.451
		C102.572,449.32,102.726,449.337,102.878,449.355z M93.543,449.837c-0.426-3.216-0.418-6.249-1.335-8.97
		c-0.591-1.75-2.543-3.041-3.884-4.538c-1.43,1.394-3.98,2.704-4.091,4.196c-0.453,6.116-0.36,12.3,0.026,18.428
		c0.073,1.16,2.373,2.992,3.691,3.033c1.34,0.042,3.527-1.488,3.951-2.785C92.902,456.14,93.075,452.808,93.543,449.837z"/>
	<path fill-rule="evenodd" clip-rule="evenodd" d="M502.431,247.721c0.411-5.915,1.317-11.361,5.427-15.736
		c7.101-7.561,18.668-5.257,22.195,4.493c2.847,7.868,2.945,15.725-0.88,23.431c-2.664,5.367-6.925,7.69-12.818,7.326
		c-5.48-0.338-9.407-3.025-11.201-8.14C503.868,255.436,503.312,251.522,502.431,247.721z M511.566,247.792
		c0.65,2.933,1.151,6.337,2.244,9.539c0.411,1.203,2.186,2.671,3.358,2.688c1.281,0.019,3.264-1.213,3.769-2.398
		c2.892-6.79,2.884-13.776-0.028-20.557c-0.528-1.229-2.728-2.77-3.74-2.515c-1.493,0.375-3.248,2.015-3.759,3.505
		C512.415,240.956,512.207,244.126,511.566,247.792z"/>
	<path fill-rule="evenodd" clip-rule="evenodd" d="M73.135,507.367c0.879-4.792,1.061-8.347,2.213-11.551
		c2.534-7.043,7.3-9.994,14.338-9.584c5.42,0.315,10.182,4.323,11.71,10.932c1.757,7.599,1.759,15.128-2.026,22.469
		c-4.038,7.827-17.82,8.923-22.072,0.438C75.154,515.797,74.255,510.902,73.135,507.367z M93.656,505.989
		c-0.573-3.355-0.872-6.822-1.876-10.071c-0.359-1.163-2.431-2.489-3.71-2.479c-1.271,0.011-3.575,1.558-3.622,2.518
		c-0.319,6.603-0.353,13.239,0.011,19.837c0.065,1.179,2.416,3.115,3.688,3.097c1.297-0.019,3.246-1.795,3.705-3.195
		C92.851,512.638,93.085,509.332,93.656,505.989z"/>
	<path fill-rule="evenodd" clip-rule="evenodd" d="M502.251,473.773c1.074-4.325,1.568-8.288,3.049-11.838
		c2.612-6.264,6.698-8.296,13.83-7.809c5.968,0.409,8.761,2.96,11.087,9.439c2.814,7.842,2.404,15.426-1.114,22.913
		c-2.401,5.11-6.589,6.756-12.01,6.826c-5.48,0.071-9.379-2.266-11.361-7.063C504.078,482.242,503.353,477.858,502.251,473.773z
		 M511.55,473.692c0.663,3.17,1.054,6.619,2.212,9.788c0.453,1.238,2.589,2.45,4.033,2.546c1.096,0.073,2.877-1.406,3.375-2.602
		c2.632-6.32,2.519-12.854,0.238-19.228c-0.506-1.415-2.527-3.364-3.63-3.231c-1.57,0.188-3.646,1.794-4.238,3.295
		C512.423,467.087,512.212,470.273,511.55,473.692z"/>
	<path fill-rule="evenodd" clip-rule="evenodd" d="M502.556,304.474c0.639-3.829,0.891-6.957,1.711-9.927
		c1.913-6.922,6.805-10.438,13.84-10.317c6.242,0.106,11.263,4.297,12.869,10.967c1.57,6.52,1.565,12.981-0.841,19.388
		c-2.105,5.606-6.772,9.35-12.479,9.626c-5.001,0.241-10.586-3.469-12.52-8.933C503.846,311.632,503.306,307.721,502.556,304.474z
		 M523.501,303.416c-0.805-3.101-1.4-6.529-2.669-9.688c-0.464-1.156-2.487-2.21-3.864-2.299c-0.977-0.063-2.502,1.365-3.027,2.482
		c-3.03,6.451-2.394,13.163-0.516,19.727c0.408,1.428,2.652,3.403,3.836,3.267c1.504-0.174,3.442-1.997,4.028-3.549
		C522.428,310.34,522.754,307.017,523.501,303.416z"/>
	<path fill-rule="evenodd" clip-rule="evenodd" d="M73.617,390.221c0.624-2.701,0.938-5.523,1.934-8.08
		c2.575-6.605,7.137-9.295,14.361-8.909c5.109,0.272,9.531,3.964,11.188,10.144c2.162,8.069,2.188,16.021-2.032,23.708
		c-3.782,6.888-16.983,7.928-21.788,0.25C73.941,402,73.646,396.271,73.617,390.221z M93.639,393.674
		c-0.532-3.665-0.605-6.876-1.582-9.784c-0.502-1.494-2.611-3.375-4.001-3.38c-1.336-0.006-3.684,2.065-3.845,3.43
		c-0.653,5.534-0.722,11.147-0.786,16.734c-0.012,0.997,0.929,2.074,1.59,2.999c2.367,3.306,5.119,3.295,6.589-0.435
		C92.839,400.104,93.061,396.57,93.639,393.674z"/>
	<path fill-rule="evenodd" clip-rule="evenodd" d="M103.228,337.644c-1.387,4.765-1.944,8.417-3.492,11.584
		c-2.146,4.391-5.952,6.856-11.082,7.024c-5.286,0.173-9.533-1.814-11.812-6.514c-4.487-9.254-4.645-18.704,0.641-27.728
		c4.596-7.846,18.197-7.505,21.6,0.679C101.158,327.686,102.031,333.183,103.228,337.644z M93.59,336.083
		c-0.501-3.092-0.697-6.425-1.695-9.496c-0.443-1.364-2.412-2.848-3.864-3.059c-1.016-0.147-2.889,1.54-3.418,2.81
		c-2.633,6.317-2.174,12.891-0.417,19.296c0.396,1.448,2.628,3.354,3.965,3.316c1.378-0.039,3.392-1.965,3.892-3.474
		C93.014,342.568,93.105,339.373,93.59,336.083z"/>
	<path fill-rule="evenodd" clip-rule="evenodd" d="M103.212,225.33c-1.412,4.284-2.205,8.006-3.835,11.314
		c-2.32,4.71-6.648,6.722-11.813,6.546c-4.96-0.169-8.906-2.36-10.996-7.014c-3.971-8.838-3.947-17.605,0.383-26.442
		c3.662-7.473,17.545-9.847,22.561,0.357C101.799,214.746,102.079,220.386,103.212,225.33z M93.597,223.652
		c-0.501-3.364-0.748-6.838-1.646-10.134c-0.349-1.285-2.199-3.064-3.298-3.018c-1.43,0.061-3.567,1.425-4.055,2.73
		c-2.483,6.661-2.39,13.533-0.056,20.223c0.418,1.196,2.389,2.572,3.63,2.561c1.274-0.013,3.281-1.391,3.653-2.582
		C92.794,230.334,93.041,227.011,93.597,223.652z"/>
	<path fill-rule="evenodd" clip-rule="evenodd" d="M503.09,134.411c-0.241-5.781,0.726-11.205,4.887-15.583
		c6.194-6.515,15.496-6.066,20.47,1.407c5.269,7.916,4.956,23.979-2.487,30.902c-4.978,4.631-16.052,3.984-19.095-2.18
		c-2.195-4.444-3.319-9.418-4.921-14.155C502.325,134.671,502.708,134.541,503.09,134.411z M523.31,134.25
		c-0.528-2.837-0.762-6.02-1.801-8.912c-0.577-1.606-2.751-3.993-3.758-3.792c-1.723,0.345-4.279,2.348-4.402,3.827
		c-0.493,5.96-0.427,12.004-0.001,17.976c0.098,1.367,2.656,3.769,3.709,3.583c1.718-0.304,3.826-2.055,4.513-3.715
		C522.671,140.551,522.747,137.461,523.31,134.25z"/>
	<path fill-rule="evenodd" clip-rule="evenodd" d="M502.257,587.141c1.009-4.313,1.433-7.944,2.718-11.24
		c2.715-6.967,6.345-8.959,14.335-8.671c5.433,0.196,8.877,3.244,11.034,9.688c2.688,8.026,2.5,15.862-1.76,23.316
		c-4.9,8.575-17.812,8.688-22.354-0.076C504.114,596.077,503.458,591.238,502.257,587.141z M523.285,586.535
		c-0.492-2.853-0.719-6.038-1.692-8.977c-0.454-1.371-2.386-3.181-3.594-3.14c-1.537,0.051-3.834,1.449-4.385,2.833
		c-2.463,6.185-2.318,12.654-0.112,18.872c0.501,1.412,2.902,3.061,4.332,2.976c1.408-0.084,3.354-1.997,3.89-3.521
		C522.69,592.825,522.781,589.764,523.285,586.535z"/>
	<path fill-rule="evenodd" clip-rule="evenodd" d="M502.367,360.82c0.942-4.018,1.385-7.978,2.813-11.543
		c2.532-6.321,7.002-8.796,13.543-8.362c6.021,0.397,9.867,3.621,11.826,10.041c2.286,7.496,2.223,14.888-1.304,22.04
		c-2.501,5.073-6.496,7.437-12.282,7.304c-5.629-0.13-9.587-2.662-11.583-7.635C503.889,368.948,503.353,364.847,502.367,360.82z
		 M523.423,360.941c-0.652-3.535-0.858-6.724-1.924-9.594c-0.579-1.562-2.499-3.349-4.04-3.591
		c-1.122-0.176-3.331,1.766-3.819,3.188c-2.235,6.506-2.76,13.185,0.306,19.612c0.562,1.176,2.309,2.49,3.49,2.474
		c1.247-0.019,3.151-1.306,3.576-2.474C522.177,367.361,522.716,363.936,523.423,360.941z"/>
	<path fill-rule="evenodd" clip-rule="evenodd" d="M502.546,191.574c0.646-3.95,0.836-7.11,1.717-10.065
		c1.852-6.219,6.43-10.792,14.263-10.324c5.861,0.351,10.604,4.22,12.397,10.729c1.842,6.684,1.454,13.287-0.85,19.797
		c-1.936,5.469-5.926,8.574-11.26,8.797c-6.708,0.281-11.313-2.089-13.503-7.788C503.868,198.967,503.332,194.869,502.546,191.574z
		 M511.63,190.425c0.559,3.537,0.663,6.738,1.679,9.617c0.565,1.601,2.479,3.049,4.133,3.787c0.696,0.312,2.919-1.126,3.373-2.216
		c2.886-6.929,3.231-14.045,0.067-20.975c-0.524-1.149-2.588-2.288-3.859-2.203c-1.197,0.079-2.889,1.575-3.308,2.807
		C512.678,184.292,512.243,187.546,511.63,190.425z"/>
	<path fill-rule="evenodd" clip-rule="evenodd" d="M64.383,285.957c-0.328,7.773-5.043,12.651-12.631,13.462
		c-10.079,1.075-15.546-5.549-16.519-12.63c-1.673-12.172,3.671-23.136,16.438-25.938c1.587-0.348,3.233-0.436,4.855-0.617
		c2.278-0.256,3.821,0.115,3.623,3.075c-0.154,2.297,0.119,4.075-3.262,4.024c-4.214-0.063-8.072,1.431-10.688,5.077
		c-0.438,0.612-0.623,1.406-0.926,2.116c0.752-0.122,1.526-0.169,2.253-0.378c7.501-2.161,13.262-0.026,15.695,6.067
		C63.935,282,64.014,284.037,64.383,285.957z M44.09,285.272c-0.09,3.887,2.971,7.979,5.913,7.906
		c2.746-0.066,5.054-3.148,5.083-6.789c0.035-4.389-1.748-6.628-5.474-6.491C46.284,280.02,43.902,281.398,44.09,285.272z"/>
	<path fill-rule="evenodd" clip-rule="evenodd" d="M42.757,346.229c-1.165,0-2.329,0.003-3.494,0
		c-4.974-0.014-6.536-2.084-4.089-6.468c3.99-7.147,7.938-14.478,13.138-20.702c1.778-2.129,7.256-1.207,11.058-1.475
		c0.165-0.012,0.667,2.028,0.684,3.117c0.075,5.156,0.067,10.314,0.02,15.471c-0.018,1.813,0.081,3.006,2.504,3.29
		c0.913,0.107,1.82,2.457,2.255,3.925c0.593,2.005-0.35,2.84-2.572,3.025c-0.81,0.067-1.994,2.089-2.079,3.285
		c-0.419,5.889-0.307,5.712-6.185,5.619c-2.653-0.043-2.889-1.186-2.947-3.31c-0.161-5.776-0.242-5.774-5.796-5.778
		C44.42,346.228,43.588,346.229,42.757,346.229z M47.677,339.656c0.86-0.564,3.06-1.24,3.232-2.26
		c0.653-3.852,0.649-7.815,0.891-11.738c-1.889,2.98-3.777,5.96-5.666,8.94c-0.351,0.553-0.718,1.095-1.05,1.658
		c-0.483,0.819-0.941,1.653-1.411,2.48C44.711,338.975,45.748,339.213,47.677,339.656z"/>
	<path fill-rule="evenodd" clip-rule="evenodd" d="M60.086,554.789c0.002,2.498,0.011,4.997-0.001,7.495
		c-0.01,2.011-0.377,4.134,2.917,3.835c0.549-0.05,1.751,1.681,1.774,2.61c0.031,1.238-0.855,3.603-1.246,3.581
		c-4.609-0.245-3.471,3.056-3.387,5.416c0.103,2.9-0.216,4.596-3.919,4.391c-3.231-0.178-5.895-0.286-5.089-4.423
		c0.951-4.888-1.536-5.562-5.481-5.141c-2.141,0.229-4.326,0.049-6.491,0.035c-4.908-0.031-6.415-1.503-4.191-5.797
		c3.992-7.705,8.379-15.349,13.748-22.106c1.571-1.978,7.023-0.911,10.705-1.058c0.184-0.007,0.601,1.732,0.629,2.667
		C60.138,549.124,60.084,551.957,60.086,554.789z M47.707,566.009c3.136,0.913,3.59-1.143,3.457-4.351
		c-0.114-2.73,0.459-5.486,0.678-8.235c0.044-0.549-0.144-1.116-0.224-1.675c-0.483,0.398-1.139,0.701-1.421,1.211
		c-1.735,3.131-3.404,6.3-5.057,9.477c-0.571,1.1-1.03,2.258-1.541,3.39C44.721,565.875,45.843,565.926,47.707,566.009z"/>
	<path fill-rule="evenodd" clip-rule="evenodd" d="M489.088,69.913c0.001,2.662,0.07,5.328-0.022,7.987
		c-0.071,2.056,0.109,3.499,2.826,3.486c0.727-0.003,2.024,1.789,2.054,2.786c0.039,1.326-1.009,3.874-1.416,3.84
		c-4.253-0.357-3.55,2.564-3.401,4.915c0.186,2.915-0.251,4.438-3.892,4.45c-3.76,0.013-4.702-1.428-4.135-4.648
		c0.687-3.896-1.078-4.967-4.683-4.549c-2.3,0.266-4.654,0.052-6.984,0.048c-5.36-0.009-7.353-2.855-4.67-7.623
		c4.023-7.149,8.15-14.343,13.215-20.74c1.468-1.854,6.295-1.286,9.572-1.231c0.538,0.009,1.268,3.085,1.474,4.796
		C489.282,65.562,489.087,67.749,489.088,69.913z M481.087,73.602c0.035-0.002,0.07-0.003,0.104-0.004
		c-0.112-2.114-0.225-4.228-0.337-6.341c-1.19,1.804-2.441,3.57-3.554,5.421c-1.255,2.087-2.466,4.21-3.509,6.406
		c-0.246,0.518,0.063,1.873,0.445,2.026c4.087,1.636,6.821-0.231,6.849-4.541C481.092,75.581,481.087,74.591,481.087,73.602z"/>
	<path fill-rule="evenodd" clip-rule="evenodd" d="M518.738,58.364c1.995,0,4.043,0.289,5.975-0.06
		c4.181-0.755,4.509,1.389,4.473,4.741c-0.031,2.815-1.186,3.334-3.569,3.213c-2.653-0.135-5.319-0.048-7.979-0.022
		c-1.745,0.018-3.47-0.495-3.683,2.508c-0.204,2.886,1.172,2.945,3.214,3.318c2.851,0.521,6.089,0.78,8.351,2.333
		c8.185,5.618,6.392,16.229-1.456,20.773c-5.749,3.329-11.977,2.691-18.236,1.243c-3.378-0.781-1.827-3.012-1.592-4.603
		c0.289-1.943,1.273-3.078,3.851-2.235c2.271,0.743,5.071,1.133,7.27,0.466c2.146-0.65,4.708-2.478,5.506-4.433
		c1.243-3.046-1.027-5.497-4.01-6.244c-2.988-0.748-6.179-0.66-9.256-1.112c-0.648-0.096-1.723-0.983-1.69-1.442
		c0.331-4.763,0.776-9.521,1.342-14.263c0.339-2.847,1.402-4.896,5.02-4.249C514.36,58.671,516.577,58.365,518.738,58.364z"/>
	<path fill-rule="evenodd" clip-rule="evenodd" d="M489.087,578.549c0,2.325,0.018,4.651-0.005,6.977
		c-0.024,2.49-0.548,5.226,3.542,4.89c0.403-0.032,1.41,1.954,1.347,2.953c-0.077,1.198-1.008,3.352-1.559,3.348
		c-4.112-0.024-3.417,2.814-3.286,5.171c0.157,2.839-0.108,4.512-3.83,4.49c-3.651-0.021-4.784-1.254-4.201-4.574
		c0.715-4.069-1.16-5.308-4.966-4.918c-2.302,0.235-4.647,0.044-6.974,0.042c-4.927-0.002-7.027-2.963-4.57-7.311
		c4.021-7.114,8.071-14.329,13.166-20.649c1.586-1.967,6.583-1.336,10.032-1.438c0.39-0.011,1.085,2.933,1.25,4.546
		C489.252,574.213,489.087,576.389,489.087,578.549z M481.08,582.667c0.033-0.002,0.065-0.003,0.099-0.004
		c-0.099-2.135-0.198-4.269-0.297-6.402c-1.205,1.803-2.433,3.591-3.605,5.415c-0.705,1.097-1.389,2.218-1.965,3.386
		c-0.773,1.566-1.435,3.188-2.145,4.787c1.789,0.125,3.637,0.567,5.344,0.251c0.976-0.181,2.188-1.473,2.461-2.488
		C481.387,586.066,481.08,584.325,481.08,582.667z"/>
	<path fill-rule="evenodd" clip-rule="evenodd" d="M49.163,412.228c-2.83,0.001-5.669,0.128-8.488-0.047
		c-1.653-0.103-3.277-0.686-4.914-1.052c0.795-2.178,1.077-4.793,2.488-6.445c3.339-3.911,7.261-7.321,10.845-11.032
		c1.119-1.158,2.408-2.52,2.74-3.986c0.498-2.202,1.056-5.053,0.08-6.773c-1.556-2.747-4.661-3.494-7.852-2.055
		c-0.747,0.337-1.488,0.73-2.275,0.926c-1.36,0.34-2.932,3.068-4.031-0.433c-0.734-2.339-2.878-5.058,1.194-5.977
		c4.571-1.032,9.413-2.338,13.932-1.798c7.385,0.883,10.987,8.738,8.541,15.938c-1.982,5.833-6.634,9.363-10.663,13.47
		c-0.402,0.41-0.919,0.707-1.382,1.056c0.549,0.097,1.098,0.272,1.647,0.275c2.496,0.012,4.994-0.065,7.489-0.035
		c4.167,0.05,6.146,2.954,4.389,6.695c-0.328,0.7-1.802,0.868-2.754,1.263c-0.143,0.059-0.33,0.01-0.496,0.01
		C56.156,412.227,52.66,412.227,49.163,412.228z"/>
	<path fill-rule="evenodd" clip-rule="evenodd" d="M478.143,493.114c-2.999-0.001-6.002,0.096-8.994-0.045
		c-1.33-0.063-3.783-0.651-3.772-0.924c0.079-2.011,0.027-4.532,1.188-5.896c3.224-3.788,7.017-7.091,10.582-10.588
		c0.832-0.816,1.735-1.578,2.46-2.482c2.427-3.021,4.055-6.742,1.604-9.969c-2.533-3.336-6.537-2.31-10.066-0.838
		c-1.526,0.638-3.086,3.098-4.263-0.654c-0.797-2.538-1.796-4.104,1.587-5.745c4.97-2.41,10.235-2.764,14.993-1.371
		c8.418,2.464,9.912,11.849,5.728,18.788c-2.262,3.748-5.818,6.717-8.806,10.024c-0.408,0.452-0.897,0.832-1.35,1.245
		c0.72,0.189,1.436,0.519,2.161,0.543c2.163,0.073,4.372,0.298,6.487-0.03c4.126-0.64,4.581,1.415,4.504,4.827
		c-0.063,2.779-1.083,3.308-3.551,3.167C485.148,492.966,481.642,493.115,478.143,493.114z"/>
	<path fill-rule="evenodd" clip-rule="evenodd" d="M489.088,126.479c0.001,2.494,0.064,4.991-0.02,7.482
		c-0.068,2.055,0.109,3.521,2.855,3.438c0.691-0.021,1.999,1.803,2.021,2.802c0.03,1.321-1.016,3.849-1.442,3.816
		c-4.242-0.324-3.504,2.593-3.377,4.931c0.154,2.842-0.115,4.491-3.838,4.465c-3.658-0.026-4.77-1.245-4.196-4.568
		c0.636-3.679-0.733-5.156-4.553-4.673c-2.455,0.311-4.981,0.063-7.476,0.056c-4.984-0.015-6.822-2.57-4.367-6.959
		c3.924-7.013,7.844-14.153,12.855-20.359c1.596-1.975,6.656-1.347,10.135-1.369c0.456-0.003,1.136,3.198,1.347,4.959
		C489.269,122.466,489.087,124.483,489.088,126.479z M481.087,130.096c0.029-0.001,0.059-0.002,0.087-0.004
		c-0.097-1.972-0.194-3.943-0.291-5.916c-1.09,1.669-2.185,3.333-3.267,5.007c-1.243,1.924-2.561,3.81-3.656,5.815
		c-0.29,0.531-0.111,1.943,0.238,2.103c3.857,1.756,6.86-0.268,6.888-4.517C481.092,131.755,481.087,130.926,481.087,130.096z"/>
	<path fill-rule="evenodd" clip-rule="evenodd" d="M501.087,21.31c-1.155-15.284,12.417-23.588,27.764-20.764
		c1.938,0.356,4.243,1.006,2.781,4.303c-0.971,2.188-0.602,4.937-4.479,3.428c-5.294-2.06-10.246-0.849-13.887,3.423
		c-3.555,4.17-4.06,9.19-2.141,14.375c1.586,4.286,4.86,6.501,9.206,7.098c2.126,0.292,4.327,0.083,6.492,0.028
		c1.801-0.045,4.356-2.078,4.316,2.063c-0.023,2.462,1.571,5.387-3.108,5.086c-4.858-0.313-9.938,0.598-14.572-0.502
		C505.6,37.982,500.271,30.331,501.087,21.31z"/>
	<path fill-rule="evenodd" clip-rule="evenodd" d="M477.03,550.69c-3.479-0.654-5.731-1.078-7.983-1.502
		c-3.743-0.704-4.74-2.403-3.226-6.233c0.814-2.059,1.488-1.847,3.051-1.629c3.146,0.438,6.37,1.086,9.469,0.761
		c1.362-0.143,3.483-2.447,3.488-3.778c0.007-1.684-1.519-3.667-2.905-4.962c-0.935-0.873-2.757-0.905-4.21-1.083
		c-1.716-0.209-3.776,0.533-3.676-2.526c0.074-2.228,0.203-3.368,3.094-3.686c5.577-0.613,8.176-3.123,6.791-5.787
		c-2.014-3.873-5.577-3.083-9.047-2.073c-2.073,0.603-4.42,2.509-5.274-1.921c-0.515-2.668-0.057-3.604,2.222-4.352
		c4.762-1.561,9.462-2.492,14.469-0.767c3.542,1.221,6.153,3.003,6.854,6.889c0.672,3.728-0.086,7.042-3.446,9.084
		c-2.385,1.449-1.915,1.875,0.171,3.128c7.114,4.273,7.004,12.975-0.328,16.965C483.332,548.963,479.613,549.775,477.03,550.69z"/>
	<path fill-rule="evenodd" clip-rule="evenodd" d="M477.41,170.729c9.359,0.501,14.07,4.859,12.684,12.176
		c-0.178,0.94-0.506,1.931-1.037,2.713c-2.733,4.025-2.765,4.004,0.397,7.475c4.569,5.014,2.687,12.69-4.244,15.826
		c-5.616,2.541-11.519,2.215-17.418,0.493c-4.281-1.25-2.223-3.906-1.729-6.331c0.816-4.013,2.687-0.407,3.972-0.469
		c2.268-0.108,4.686,0.923,6.813,0.451c1.899-0.421,4.317-1.867,5.032-3.505c1.151-2.634-0.808-4.757-3.377-5.721
		c-1.342-0.504-2.932-0.709-4.354-0.553c-3.05,0.335-3.036-1.432-3.112-3.632c-0.084-2.449,0.526-3.409,3.258-3.567
		c2.23-0.13,4.485-1.375,6.491-2.537c0.395-0.229-0.027-3.271-0.54-3.421c-2.524-0.74-5.334-1.621-7.801-1.161
		c-2.978,0.556-5.391,2.058-6.097-2.575c-0.312-2.048-0.033-3.186,1.977-3.649C471.347,172.043,474.381,171.398,477.41,170.729z"/>
	<path fill-rule="evenodd" clip-rule="evenodd" d="M49.08,525.228c-2.999,0-6.005,0.124-8.994-0.053
		c-1.472-0.087-2.911-0.73-4.365-1.123c0.614-1.938,0.717-4.322,1.942-5.728c3.493-4.01,7.509-7.561,11.183-11.422
		c1.344-1.413,2.838-3.052,3.301-4.838c0.516-1.991,0.763-5.153-0.365-6.204c-1.604-1.494-4.544-1.673-6.968-2.105
		c-0.831-0.147-1.82,0.65-2.75,0.979c-1.576,0.556-3.303,2.861-4.514-0.523c-0.917-2.564-1.885-4.75,1.846-6.112
		c4.785-1.748,9.521-2.772,14.478-1.139c7.058,2.326,9.769,8.482,7.475,15.645c-1.896,5.917-6.709,9.28-10.673,13.426
		c-0.428,0.446-0.87,0.879-1.306,1.318c0.682,0.204,1.36,0.569,2.046,0.584c2.664,0.059,5.338,0.125,7.993-0.04
		c2.76-0.172,3.794,0.784,3.771,3.683c-0.022,2.734-0.671,3.901-3.604,3.707C56.09,525.051,52.579,525.228,49.08,525.228z"/>
	<path fill-rule="evenodd" clip-rule="evenodd" d="M49.148,129.227c-3.16,0.002-6.323,0.093-9.478-0.041
		c-1.361-0.057-2.703-0.578-4.054-0.889c0.477-1.846,0.465-4.068,1.537-5.453c1.908-2.465,4.56-4.339,6.738-6.615
		c2.74-2.864,5.797-5.601,7.777-8.947c1.117-1.888,1.228-5.416,0.149-7.229c-0.863-1.452-4.173-1.652-6.457-1.971
		c-1.171-0.163-2.566,0.454-3.697,1.034c-2.011,1.033-3.584,1.441-4.407-1.344c-0.617-2.086-1.546-4.256,1.519-5.084
		c3.448-0.934,6.953-2.319,10.438-2.335c11.083-0.051,16.708,10.326,10.622,19.663c-2.407,3.691-5.967,6.627-8.948,9.953
		c-0.476,0.531-0.672,1.312-0.998,1.977c0.633,0.094,1.265,0.261,1.898,0.268c2.826,0.029,5.667,0.183,8.478-0.034
		c2.766-0.214,2.887,1.313,2.848,3.362c-0.041,2.09,0.211,3.983-2.994,3.746C56.48,129.018,52.807,129.226,49.148,129.227z"/>
	<path fill-rule="evenodd" clip-rule="evenodd" d="M77.09,52.811c0-5.495,0.094-10.991-0.043-16.482
		c-0.06-2.374,0.72-3.192,3.119-3.142c6.323,0.133,12.657,0.197,18.977-0.021c2.928-0.102,2.717,1.459,2.65,3.4
		c-0.068,1.96,0.504,4.022-2.827,3.726c-3.304-0.295-6.659,0.059-9.982-0.089c-4.161-0.184-2.703,2.859-2.854,4.854
		c-0.158,2.069-0.677,4.53,2.948,4.212c2.479-0.218,4.995,0.044,7.487-0.062c2.607-0.11,4.415,0.007,4.257,3.619
		c-0.133,3.046-0.512,4.646-4.059,4.479c-3.415-0.161-8.205-0.964-9.921,0.851c-1.789,1.892-0.686,6.573-0.74,10.037
		c-0.073,4.655-3.279,6.833-7.567,4.801c-0.806-0.382-1.354-2.09-1.381-3.201C77.017,64.133,77.09,58.471,77.09,52.811z"/>
	<path fill-rule="evenodd" clip-rule="evenodd" d="M478.303,266.435c-2.995,0.001-6,0.146-8.98-0.063
		c-1.416-0.099-3.992-0.939-3.971-1.327c0.109-1.953,0.35-4.375,1.562-5.701c3.46-3.784,7.414-7.115,11.169-10.63
		c0.485-0.454,1.053-0.874,1.388-1.427c1.97-3.251,4.24-6.583,1.637-10.437c-1.63-2.413-6.959-2.275-11.006-0.16
		c-0.743,0.389-2.513,0.439-2.553,0.298c-0.549-1.977-1.834-5.298-1.113-5.834c6.655-4.95,19.879-5.649,23.672,2.925
		c2.87,6.488,0.65,12.283-3.771,17.358c-1.526,1.752-3.279,3.307-4.926,4.955c-0.84,0.84-1.673,1.688-2.509,2.532
		c1.127,0.102,2.252,0.261,3.381,0.291c1.829,0.049,3.67,0.134,5.488-0.015c2.886-0.235,4.472,0.191,4.463,3.866
		c-0.009,3.788-2.086,3.396-4.445,3.374C484.626,266.413,481.465,266.435,478.303,266.435z"/>
	<path fill-rule="evenodd" clip-rule="evenodd" d="M17.085,166.719c0.001,5.321-0.228,10.656,0.081,15.96
		c0.204,3.519-1.538,3.756-4.188,3.574c-2.405-0.164-4.996,0.687-4.823-3.538c0.313-7.637-0.063-15.3,0.151-22.944
		c0.096-3.412-0.721-4.137-3.746-2.453c-0.981,0.547-2.309,0.473-3.478,0.682c0.028-2.133-0.675-5.703,0.209-6.152
		c3.979-2.022,8.369-3.296,12.692-4.559c2.252-0.658,3.221,0.508,3.149,2.968C16.976,155.74,17.084,161.231,17.085,166.719z"/>
	<path fill-rule="evenodd" clip-rule="evenodd" d="M485.087,304.474c0,4.657-0.182,9.324,0.061,13.969
		c0.177,3.387-0.34,4.929-4.431,4.972c-4.316,0.044-4.797-1.678-4.692-5.213c0.21-7.146,0.015-14.304,0.089-21.455
		c0.024-2.351,0.006-3.998-3.083-2.368c-1.406,0.743-3.525,3.214-4.599-0.127c-0.716-2.228-1.882-5.202,2.184-6.2
		c1.719-0.421,3.229-1.629,4.914-2.264c7.101-2.672,9.557-1.049,9.558,6.211C485.087,296.157,485.087,300.315,485.087,304.474z"/>
	<path fill-rule="evenodd" clip-rule="evenodd" d="M485.085,417.382c-0.002,5.319-0.142,10.645,0.043,15.958
		c0.146,4.198-2.841,2.709-4.812,2.839c-2.006,0.133-4.383,0.81-4.288-2.875c0.202-7.809-0.036-15.628,0.11-23.438
		c0.051-2.697-0.488-3.532-3.164-2.287c-1.5,0.698-3.65,2.97-4.612-0.406c-0.684-2.401-1.477-5.274,2.484-6.176
		c3.314-0.755,6.521-1.983,9.834-2.736c3.297-0.749,4.728,0.503,4.487,4.164C484.842,407.391,485.087,412.394,485.085,417.382z"/>
	<path fill-rule="evenodd" clip-rule="evenodd" d="M17.086,110.408c-0.001,5.157-0.242,10.33,0.073,15.468
		c0.266,4.339-2.599,3.162-4.881,3.368c-2.659,0.24-4.267-0.054-4.129-3.563c0.3-7.642,0.031-15.305,0.128-22.956
		c0.031-2.438-0.08-3.771-3.033-2.214c-1.247,0.659-3.055,3.495-4.519-0.084c-1.153-2.819-1.275-5.133,2.229-6.189
		c3.389-1.021,6.755-2.148,10.193-2.967c3.442-0.819,4.123,1.11,3.995,4.166C16.935,100.418,17.086,105.417,17.086,110.408z"/>
	<path fill-rule="evenodd" clip-rule="evenodd" d="M144.005,409.893c-7.981,0-15.965,0.072-23.943-0.092
		c-0.999-0.021-2.563-1.108-2.841-2.016c-0.727-2.371,1.023-2.577,2.893-2.573c15.964,0.033,31.928-0.019,47.891,0.105
		c1.024,0.008,2.04,1.257,3.06,1.928c-1.038,0.878-2.056,2.487-3.116,2.516c-7.977,0.215-15.961,0.117-23.942,0.117
		C144.005,409.883,144.005,409.888,144.005,409.893z"/>
	<path fill-rule="evenodd" clip-rule="evenodd" d="M402.337,373.393c7.8,0.001,15.602-0.087,23.396,0.098
		c1.129,0.027,2.936,1.163,3.205,2.129c0.792,2.826-1.466,2.614-3.323,2.613c-15.6-0.009-31.199,0.005-46.799-0.02
		c-1.715-0.002-3.819,0.563-3.743-2.462c0.074-2.982,2.129-2.35,3.864-2.353C386.737,373.385,394.537,373.393,402.337,373.393z"/>
	<path fill-rule="evenodd" clip-rule="evenodd" d="M402.046,605.105c-7.812,0.001-15.625,0.093-23.432-0.098
		c-1.183-0.029-3.1-1.174-3.354-2.148c-0.733-2.796,1.556-2.63,3.416-2.63c15.61,0.003,31.221-0.002,46.832,0.008
		c1.767,0.001,3.672-0.472,3.636,2.545c-0.038,3.162-2.125,2.298-3.766,2.307C417.601,605.126,409.823,605.105,402.046,605.105z"/>
	<path fill-rule="evenodd" clip-rule="evenodd" d="M144.253,575.354c7.791,0.002,15.582,0.04,23.371-0.025
		c2-0.017,4.061-0.027,3.301,2.675c-0.273,0.975-2.158,2.119-3.316,2.13c-15.636,0.141-31.273,0.101-46.91,0.087
		c-1.748-0.002-3.69,0.518-3.669-2.52c0.022-3.154,2.09-2.328,3.751-2.335C128.604,575.334,136.429,575.352,144.253,575.354z"/>
	<path fill-rule="evenodd" clip-rule="evenodd" d="M401.579,151.225c-7.646,0.003-15.295,0.09-22.938-0.088
		c-1.191-0.028-2.354-1.265-3.53-1.943c1.072-0.871,2.137-2.489,3.218-2.501c16.123-0.17,32.247-0.157,48.371-0.045
		c0.795,0.006,1.581,1.325,2.372,2.032c-0.854,0.848-1.69,2.411-2.562,2.431C418.203,151.297,409.891,151.222,401.579,151.225z"/>
	<path fill-rule="evenodd" clip-rule="evenodd" d="M144.051,353.228c-7.831-0.001-15.663-0.01-23.495,0.007
		c-1.876,0.004-4.128,0.188-3.312-2.633c0.272-0.942,2.163-2.002,3.322-2.012c15.465-0.133,30.932-0.104,46.397-0.064
		c1.831,0.005,4.627-0.683,3.926,2.602c-0.199,0.932-2.497,1.974-3.855,2.008C159.377,353.328,151.713,353.228,144.051,353.228z"/>
	<path fill-rule="evenodd" clip-rule="evenodd" d="M143.625,126.228c-7.828-0.001-15.656-0.023-23.484,0.016
		c-1.811,0.01-3.651-0.061-2.918-2.498c0.261-0.869,1.862-1.892,2.858-1.898c15.655-0.116,31.313-0.133,46.967,0.024
		c1.343,0.014,3.656,1.244,3.826,2.207c0.558,3.16-2.241,2.081-3.766,2.102C159.281,126.285,151.453,126.228,143.625,126.228z"/>
	<path fill-rule="evenodd" clip-rule="evenodd" d="M143.145,182.547c-7.636,0-15.272-0.017-22.908,0.012
		c-1.721,0.007-3.715,0.168-3.006-2.364c0.243-0.865,1.94-1.874,2.98-1.882c15.936-0.118,31.873-0.119,47.809,0.008
		c1.016,0.008,2.022,1.288,3.033,1.978c-1.003,0.744-1.992,2.112-3.01,2.134c-8.296,0.176-16.599,0.099-24.898,0.099
		C143.145,182.537,143.145,182.542,143.145,182.547z"/>
	<path fill-rule="evenodd" clip-rule="evenodd" d="M143.641,466.228c-7.662,0-15.326,0.089-22.984-0.093
		c-1.192-0.028-2.356-1.287-3.533-1.978c1.225-0.643,2.444-1.834,3.675-1.845c15.489-0.127,30.981-0.126,46.472-0.005
		c1.265,0.011,3.487,0.982,3.612,1.77c0.506,3.196-2.241,2.081-3.756,2.102C159.299,466.286,151.47,466.229,143.641,466.228z"/>
	<path fill-rule="evenodd" clip-rule="evenodd" d="M144.09,239.229c-7.662,0-15.325,0.06-22.985-0.052
		c-1.507-0.022-4.238,1.133-3.813-2.047c0.104-0.778,2.31-1.81,3.557-1.819c15.489-0.124,30.98-0.124,46.471,0
		c1.248,0.01,3.455,1.034,3.562,1.813c0.435,3.181-2.297,2.031-3.806,2.053C159.415,239.289,151.752,239.229,144.09,239.229z"/>
	<path fill-rule="evenodd" clip-rule="evenodd" d="M401.923,434.229c-7.832,0.001-15.664,0.071-23.493-0.078
		c-1.112-0.021-2.205-1.105-3.307-1.698c1.128-0.74,2.25-2.116,3.385-2.126c15.661-0.142,31.325-0.141,46.987-0.008
		c1.19,0.01,2.371,1.276,3.556,1.959c-1.211,0.65-2.41,1.837-3.635,1.863C417.588,434.312,409.755,434.228,401.923,434.229z"/>
	<path fill-rule="evenodd" clip-rule="evenodd" d="M143.835,296.229c-7.662,0-15.326,0.084-22.984-0.084
		c-1.255-0.028-2.485-1.168-3.728-1.793c1.16-0.707,2.314-2.021,3.48-2.03c15.656-0.137,31.314-0.137,46.971,0
		c1.164,0.01,2.317,1.325,3.477,2.034c-1.243,0.624-2.476,1.763-3.731,1.789C159.494,296.311,151.664,296.229,143.835,296.229z"/>
	<path fill-rule="evenodd" clip-rule="evenodd" d="M401.86,491.228c-7.662,0-15.326,0.084-22.985-0.083
		c-1.263-0.027-2.502-1.151-3.752-1.769c1.152-0.716,2.299-2.043,3.457-2.054c15.656-0.138,31.314-0.138,46.971-0.002
		c1.172,0.01,2.334,1.311,3.5,2.011c-1.234,0.632-2.458,1.785-3.706,1.812C417.52,491.311,409.688,491.228,401.86,491.228z"/>
	<path fill-rule="evenodd" clip-rule="evenodd" d="M401.816,321.227c-7.829-0.001-15.659,0.072-23.484-0.085
		c-1.081-0.021-2.14-1.179-3.209-1.81c1-0.7,1.995-2.003,3.001-2.011c15.989-0.128,31.98-0.128,47.97,0.002
		c0.991,0.008,1.972,1.337,2.958,2.052c-1.084,0.617-2.156,1.748-3.251,1.77C417.809,321.297,409.812,321.227,401.816,321.227z"/>
	<path fill-rule="evenodd" clip-rule="evenodd" d="M402.326,544.229c7.664,0,15.33-0.083,22.99,0.084
		c1.257,0.027,2.491,1.156,3.735,1.776c-1.155,0.713-2.306,2.036-3.467,2.046c-15.66,0.138-31.322,0.138-46.982,0
		c-1.165-0.01-2.319-1.323-3.479-2.031c1.236-0.625,2.462-1.765,3.712-1.791C386.663,544.147,394.495,544.229,402.326,544.229z"/>
	<path fill-rule="evenodd" clip-rule="evenodd" d="M144.05,523.228c-7.829,0-15.659,0.089-23.483-0.097
		c-1.164-0.027-2.297-1.344-3.443-2.064c1.089-0.612,2.173-1.749,3.266-1.757c15.823-0.115,31.647-0.116,47.471,0.003
		c1.068,0.008,2.128,1.191,3.191,1.828c-1.172,0.695-2.33,1.966-3.518,1.993C159.709,523.315,151.878,523.228,144.05,523.228z"/>
	<path fill-rule="evenodd" clip-rule="evenodd" d="M402.279,203.23c7.806,0.001,15.614-0.09,23.415,0.101
		c1.137,0.027,2.24,1.396,3.359,2.143c-1.072,0.643-2.141,1.835-3.218,1.843c-15.61,0.118-31.223,0.109-46.834,0.021
		c-1.515-0.009-4.275,0.905-3.714-2.224c0.147-0.815,2.316-1.774,3.575-1.801C386.666,203.148,394.474,203.23,402.279,203.23z"/>
	<path fill-rule="evenodd" clip-rule="evenodd" d="M401.845,264.229c-7.663,0-15.328,0.084-22.987-0.084
		c-1.257-0.027-2.49-1.162-3.735-1.785c1.158-0.71,2.31-2.028,3.474-2.038c15.657-0.137,31.316-0.137,46.975,0
		c1.166,0.01,2.32,1.32,3.48,2.026c-1.239,0.627-2.468,1.77-3.72,1.796C417.505,264.311,409.674,264.229,401.845,264.229z"/>
	<path fill-rule="evenodd" clip-rule="evenodd" d="M57.213,50.002c-4.834,0.053-9.005-3.838-9.124-8.513
		c-0.124-4.851,3.989-9.135,8.886-9.255c4.653-0.113,8.966,3.921,9.11,8.523C66.24,45.728,62.189,49.949,57.213,50.002z
		 M56.379,45.904c0.679-0.04,1.357-0.079,2.036-0.119c0.887-1.778,2.633-3.674,2.409-5.299c-0.21-1.523-2.504-2.761-3.881-4.124
		c-1.281,1.661-3.323,3.21-3.591,5.021C53.156,42.711,55.286,44.384,56.379,45.904z"/>
	<path fill-rule="evenodd" clip-rule="evenodd" d="M482.582,0.23c5.475,0.021,8.607,3.148,8.561,8.544
		c-0.047,5.37-3.197,8.451-8.645,8.454c-4.854,0.003-9.228-3.862-9.385-8.292C472.953,4.406,477.518,0.209,482.582,0.23z
		 M487.822,8.652c-2.391-1.957-3.735-3.897-5.409-4.243c-2.932-0.604-4.127,2.098-4.161,4.357c-0.036,2.366,1.394,4.891,4.245,4.277
		C484.156,12.687,485.462,10.685,487.822,8.652z"/>
	<path fill-rule="evenodd" clip-rule="evenodd" d="M447.104,417.489c1.329-0.001,2.665,0.08,3.986-0.019
		c2.343-0.176,4.02-0.196,4.121,3.147c0.106,3.492-1.508,3.753-4.168,3.617c-2.818-0.143-5.653-0.144-8.472-0.02
		c-2.521,0.111-3.564-0.783-3.545-3.43c0.019-2.652,1.038-3.589,3.593-3.324C444.099,417.616,445.607,417.49,447.104,417.489z"/>
	<path fill-rule="evenodd" clip-rule="evenodd" d="M17.579,506.365c1.649,0.004,3.308,0.109,4.946-0.02
		c2.6-0.205,3.396,0.907,3.425,3.457c0.031,2.753-1.156,3.393-3.586,3.259c-2.631-0.144-5.276-0.045-7.915-0.03
		c-2.253,0.014-4.419,0.669-4.507-3.188c-0.094-4.107,2.198-3.564,4.669-3.487C15.6,506.386,16.59,506.36,17.579,506.365z"/>
	<path fill-rule="evenodd" clip-rule="evenodd" d="M152.588,381.112c-4.151-0.002-8.307,0.091-12.452-0.069
		c-1.008-0.039-1.982-0.913-2.973-1.403c0.878-0.469,1.75-1.335,2.633-1.345c8.967-0.099,17.935-0.087,26.901-0.005
		c0.761,0.007,1.515,0.746,2.272,1.145c-0.811,0.561-1.606,1.577-2.435,1.605C161.891,381.196,157.238,381.115,152.588,381.112z"/>
	<path fill-rule="evenodd" clip-rule="evenodd" d="M447.13,480.227c-1.661,0-3.334-0.12-4.981,0.028
		c-2.391,0.214-3.107-0.726-3.137-3.106c-0.032-2.589,1.115-3.032,3.298-2.948c3.151,0.121,6.314,0.101,9.468,0.006
		c2.079-0.063,3.353,0.166,3.398,2.853c0.05,2.846-1.199,3.369-3.562,3.189C450.128,480.135,448.625,480.227,447.13,480.227z"/>
	<path fill-rule="evenodd" clip-rule="evenodd" d="M153.04,494.22c-4.498,0-8.998,0.081-13.491-0.075
		c-0.808-0.028-1.583-1.032-2.373-1.586c0.738-0.439,1.474-1.255,2.216-1.262c9.161-0.087,18.323-0.087,27.484,0.006
		c0.717,0.007,1.424,0.879,2.135,1.349c-0.826,0.523-1.638,1.471-2.48,1.499C162.038,494.3,157.537,494.221,153.04,494.22z"/>
	<path fill-rule="evenodd" clip-rule="evenodd" d="M153.073,267.227c-4.331-0.001-8.666,0.098-12.99-0.075
		c-0.99-0.039-1.942-1.015-2.912-1.56c0.896-0.453,1.786-1.29,2.686-1.3c8.828-0.099,17.658-0.099,26.486,0.002
		c0.893,0.01,1.775,0.862,2.663,1.324c-0.979,0.536-1.942,1.495-2.941,1.535C161.74,267.325,157.405,267.227,153.073,267.227z"/>
	<path fill-rule="evenodd" clip-rule="evenodd" d="M153.17,324.224c-4.497-0.002-8.998,0.077-13.491-0.071
		c-0.855-0.028-1.682-0.954-2.521-1.465c0.867-0.484,1.729-1.38,2.604-1.391c8.827-0.104,17.657-0.103,26.485-0.009
		c0.92,0.01,1.831,0.804,2.746,1.233c-0.942,0.568-1.867,1.587-2.831,1.627C161.837,324.327,157.502,324.226,153.17,324.224z"/>
	<path fill-rule="evenodd" clip-rule="evenodd" d="M447.341,531.191c1.49-0.003,2.99,0.099,4.47-0.027
		c2.157-0.185,3.312,0.237,3.359,2.854c0.05,2.761-1.07,3.361-3.5,3.245c-3.14-0.149-6.295-0.118-9.438-0.014
		c-2.368,0.079-3.119-0.93-3.203-3.243c-0.097-2.67,1.227-2.99,3.345-2.836C444.021,531.29,445.685,531.194,447.341,531.191z"/>
	<path fill-rule="evenodd" clip-rule="evenodd" d="M153.021,551.224c-4.331,0.002-8.667,0.103-12.991-0.075
		c-0.97-0.039-1.901-1.048-2.851-1.61c0.911-0.436,1.817-1.239,2.732-1.249c8.828-0.095,17.658-0.097,26.486,0.007
		c0.878,0.011,1.745,0.896,2.617,1.375c-0.834,0.518-1.653,1.453-2.503,1.481C162.019,551.301,157.519,551.222,153.021,551.224z"/>
	<path fill-rule="evenodd" clip-rule="evenodd" d="M152.673,154.216c-4.493-0.001-8.989,0.063-13.479-0.068
		c-0.693-0.021-1.359-0.939-2.039-1.442c0.695-0.487,1.386-1.393,2.086-1.4c9.153-0.096,18.308-0.095,27.461-0.014
		c0.764,0.007,1.521,0.767,2.28,1.176c-0.775,0.583-1.535,1.644-2.33,1.671C161.997,154.298,157.333,154.217,152.673,154.216z"/>
	<path fill-rule="evenodd" clip-rule="evenodd" d="M18.318,569.228c-1.656-0.001-3.316-0.083-4.966,0.019
		c-2.113,0.131-3.299-0.244-3.354-2.874c-0.06-2.863,1.237-3.272,3.567-3.171c2.81,0.122,5.629,0.064,8.442,0.016
		c2.207-0.038,3.995-0.319,4.025,3.129c0.035,3.84-2.342,2.717-4.239,2.866C20.642,569.302,19.478,569.229,18.318,569.228z"/>
	<path fill-rule="evenodd" clip-rule="evenodd" d="M391.841,577.225c-4.33,0-8.664,0.076-12.99-0.062
		c-0.906-0.029-1.787-0.849-2.68-1.303c0.809-0.541,1.611-1.543,2.427-1.553c8.993-0.112,17.988-0.112,26.981-0.001
		c0.815,0.01,1.617,1.006,2.426,1.544c-0.891,0.458-1.77,1.284-2.674,1.312C400.838,577.299,396.339,577.225,391.841,577.225z"/>
	<path fill-rule="evenodd" clip-rule="evenodd" d="M447.013,587.232c1.662,0,3.333,0.115,4.982-0.027
		c2.35-0.203,3.148,0.656,3.167,3.075c0.02,2.551-1.05,3.071-3.27,2.979c-3.151-0.13-6.313-0.095-9.468-0.011
		c-2.04,0.055-3.393-0.089-3.426-2.818c-0.034-2.796,1.12-3.422,3.53-3.222C444.015,587.332,445.518,587.231,447.013,587.232z"/>
	<path fill-rule="evenodd" clip-rule="evenodd" d="M152.897,607.944c-4.324-0.002-8.651,0.067-12.974-0.058
		c-0.924-0.027-1.828-0.762-2.741-1.171c0.836-0.494,1.667-1.406,2.509-1.416c8.982-0.104,17.966-0.092,26.948-0.014
		c0.772,0.007,1.538,0.715,2.308,1.098c-0.858,0.521-1.702,1.463-2.577,1.493C161.884,608.029,157.39,607.947,152.897,607.944z"/>
	<path fill-rule="evenodd" clip-rule="evenodd" d="M391.587,294.222c-4.309,0.001-8.618,0.053-12.925-0.045
		c-0.806-0.019-1.599-0.634-2.398-0.973c0.778-0.65,1.534-1.829,2.338-1.861c4.632-0.188,9.275-0.109,13.915-0.113
		c4.309-0.003,8.62-0.077,12.924,0.071c0.874,0.029,1.719,0.908,2.578,1.396c-0.838,0.509-1.662,1.43-2.514,1.457
		C400.869,294.298,396.227,294.222,391.587,294.222z"/>
	<path fill-rule="evenodd" clip-rule="evenodd" d="M392.149,461.235c4.498,0.003,8.999-0.078,13.491,0.078
		c0.803,0.028,1.571,1.043,2.355,1.602c-0.743,0.435-1.481,1.239-2.229,1.247c-8.829,0.09-17.66,0.12-26.487-0.021
		c-0.993-0.017-1.968-1.182-2.951-1.813c0.942-0.365,1.876-1.021,2.827-1.045C383.484,461.167,387.817,461.231,392.149,461.235z"/>
	<path fill-rule="evenodd" clip-rule="evenodd" d="M392.223,125.139c-4.302,0-8.608,0.11-12.902-0.079
		c-1.046-0.046-2.049-1.077-3.071-1.655c0.918-0.392,1.834-1.113,2.756-1.122c8.769-0.086,17.539-0.089,26.307,0.008
		c0.9,0.011,1.792,0.828,2.688,1.271c-0.957,0.517-1.898,1.442-2.873,1.479c-4.296,0.163-8.602,0.07-12.903,0.07
		C392.223,125.121,392.223,125.129,392.223,125.139z"/>
	<path fill-rule="evenodd" clip-rule="evenodd" d="M392.325,238.22c-4.473-0.005-8.949,0.086-13.416-0.081
		c-0.915-0.034-1.793-1.037-2.688-1.594c0.881-0.438,1.758-1.246,2.644-1.256c8.779-0.095,17.562-0.109,26.34,0.018
		c0.937,0.014,1.858,1.072,2.786,1.646c-0.914,0.424-1.817,1.187-2.744,1.215C400.942,238.299,396.633,238.226,392.325,238.22z"/>
	<path fill-rule="evenodd" clip-rule="evenodd" d="M153.054,437.22c-4.643-0.004-9.286,0.056-13.925-0.071
		c-0.652-0.019-1.278-0.949-1.917-1.458c0.611-0.37,1.22-1.059,1.833-1.063c9.118-0.06,18.238-0.071,27.355,0.051
		c0.841,0.011,1.668,1.011,2.502,1.552c-0.807,0.331-1.607,0.931-2.42,0.947C162.008,437.272,157.53,437.223,153.054,437.22z"/>
	<path fill-rule="evenodd" clip-rule="evenodd" d="M391.965,181.221c-4.311,0.005-8.622,0.071-12.929-0.047
		c-0.94-0.026-1.863-0.711-2.794-1.093c0.819-0.61,1.632-1.74,2.46-1.752c9.115-0.129,18.233-0.116,27.35-0.018
		c0.658,0.007,1.307,0.976,1.959,1.498c-0.707,0.469-1.404,1.324-2.124,1.344C401.249,181.276,396.605,181.216,391.965,181.221z"/>
	<path fill-rule="evenodd" clip-rule="evenodd" d="M391.586,348.233c4.637,0.003,9.276-0.073,13.908,0.071
		c0.856,0.026,1.685,0.94,2.525,1.444c-0.854,0.491-1.703,1.399-2.563,1.41c-8.775,0.104-17.554,0.124-26.328-0.023
		c-0.962-0.017-1.904-1.23-2.855-1.89c0.965-0.338,1.922-0.942,2.896-0.969C383.305,348.168,387.446,348.231,391.586,348.233z"/>
	<path fill-rule="evenodd" clip-rule="evenodd" d="M391.662,520.252c-4.47,0-8.939,0.039-13.407-0.044
		c-0.652-0.012-1.293-0.61-1.938-0.937c0.581-0.434,1.157-1.237,1.743-1.243c9.435-0.099,18.87-0.116,28.305-0.058
		c0.538,0.004,1.07,0.821,1.605,1.26c-0.635,0.331-1.266,0.938-1.906,0.949c-4.799,0.081-9.601,0.044-14.401,0.044
		C391.662,520.234,391.662,520.243,391.662,520.252z"/>
	<path fill-rule="evenodd" clip-rule="evenodd" d="M391.838,407.23c-4.475,0-8.951,0.036-13.425-0.036
		c-0.702-0.012-1.396-0.515-2.094-0.791c0.695-0.502,1.384-1.431,2.085-1.44c9.28-0.122,18.563-0.138,27.844-0.091
		c0.571,0.003,1.14,0.744,1.709,1.141c-0.566,0.401-1.126,1.14-1.7,1.15c-4.805,0.094-9.612,0.053-14.419,0.053
		C391.838,407.22,391.838,407.225,391.838,407.23z"/>
	<path fill-rule="evenodd" clip-rule="evenodd" d="M153.094,210.229c-4.636-0.006-9.272,0.031-13.907-0.048
		c-0.668-0.011-1.326-0.584-1.988-0.896c0.68-0.476,1.355-1.358,2.04-1.365c9.105-0.083,18.213-0.073,27.318,0.022
		c0.771,0.009,1.533,0.801,2.299,1.229c-0.783,0.354-1.56,0.998-2.351,1.016C162.036,210.286,157.564,210.234,153.094,210.229z"/>
	<path fill-rule="evenodd" clip-rule="evenodd" fill="none" d="M321.526,180.877c0,24.493-0.05,48.986,0.01,73.48
		c0.123,50.441,0.337,100.882,0.44,151.323c0.031,15.492-0.25,30.985-0.256,46.478c-0.019,57.916,0.046,115.831-0.044,173.747
		c-0.005,3.075,1.134,4.358,3.815,5.288c22.447,7.782,41.807,20.57,57.8,37.938c19.793,21.492,32.345,46.761,36.835,75.894
		c6.128,39.771-1.784,76.363-25.217,109.088c-22.188,30.985-52.306,50.238-89.686,58.225c-12.78,2.73-25.681,3.737-38.557,2.749
		c-29.565-2.269-56.333-12.232-79.913-30.589c-25.097-19.537-41.852-44.591-51.069-74.902c-5.222-17.173-6.888-34.823-5.422-52.517
		c2.555-30.826,13.921-58.423,33.819-82.186c15.449-18.45,34.384-32.474,56.783-41.44c3.747-1.5,4.296-3.329,4.289-6.81
		c-0.1-51.491-0.068-102.982-0.068-154.474c0-125.811,0.04-251.622-0.037-377.434c-0.014-22.92,18.533-43.903,41.805-46.691
		c15.644-1.874,28.834,2.701,39.956,12.887c8.284,7.587,14.012,17.459,14.154,29.038c0.373,30.298,0.126,60.604,0.126,90.906
		C321.236,180.876,321.381,180.876,321.526,180.877z"/>
	<path fill-rule="evenodd" clip-rule="evenodd" fill="none" d="M55.772,232.583c-1.894,1.444-3.595,3.435-5.732,4.192
		c-2.504,0.889-6.516-2.588-5.733-5.032c0.677-2.114,2.718-4.479,4.737-5.297C51.461,225.468,54.891,228.93,55.772,232.583z"/>
	<path fill-rule="evenodd" clip-rule="evenodd" fill="none" d="M55.993,213.67c-2.797,2.565-5.026,5.503-5.813,5.157
		c-2.035-0.895-4.097-2.975-4.924-5.066c-1.06-2.681,1.526-4.142,3.689-3.831C50.97,210.221,52.794,211.892,55.993,213.67z"/>
	<path fill-rule="evenodd" clip-rule="evenodd" fill="none" d="M523.462,530.238c-0.734,3.114-1.209,6.368-2.339,9.375
		c-0.541,1.438-2.529,3.517-3.501,3.338c-1.612-0.296-4.095-2.104-4.179-3.407c-0.406-6.277-0.339-12.613,0.078-18.894
		c0.081-1.206,2.451-3.082,3.828-3.139c1.264-0.052,3.261,1.685,3.79,3.07C522.287,523.586,522.702,526.871,523.462,530.238z"/>
	<path fill-rule="evenodd" clip-rule="evenodd" fill="none" d="M523.438,417.01c-0.698,3.305-1.007,6.464-2.111,9.314
		c-0.604,1.558-2.621,3.664-3.882,3.587c-1.49-0.093-3.996-2.211-4.072-3.562c-0.352-6.292-0.181-12.633,0.229-18.93
		c0.072-1.115,2.201-2.979,3.31-2.928c1.454,0.066,3.592,1.395,4.101,2.7C522.243,410.348,522.699,413.805,523.438,417.01z"/>
	<path fill-rule="evenodd" clip-rule="evenodd" fill="none" d="M43.466,166.76c0.858-3.448,1.438-6.822,2.619-9.971
		c0.436-1.162,2.284-2.473,3.492-2.476c1.205-0.004,3.001,1.283,3.524,2.457c2.933,6.578,2.921,13.34,0.005,19.92
		c-0.531,1.198-2.312,2.545-3.516,2.546c-1.204,0.002-3.045-1.358-3.491-2.543C44.912,173.548,44.325,170.175,43.466,166.76z"/>
	<path fill-rule="evenodd" clip-rule="evenodd" fill="none" d="M93.698,166.628c-0.599,3.343-0.937,6.782-1.941,10.014
		c-0.361,1.164-2.344,2.552-3.559,2.525c-1.317-0.028-3.682-1.532-3.729-2.484c-0.326-6.627-0.322-13.285,0.006-19.913
		c0.047-0.935,2.438-2.44,3.733-2.429c1.257,0.012,3.218,1.404,3.606,2.6C92.81,160.004,93.102,163.296,93.698,166.628z"/>
	<path fill-rule="evenodd" clip-rule="evenodd" fill="none" d="M93.614,110.219c-0.532,3.411-0.766,6.729-1.676,9.851
		c-0.368,1.267-2.271,2.994-3.364,2.917c-1.464-0.104-3.644-1.478-4.083-2.787c-2.242-6.685-2.446-13.554,0.185-20.202
		c0.478-1.205,2.399-2.588,3.609-2.548c1.272,0.042,3.24,1.477,3.592,2.684C92.831,103.416,93.092,106.899,93.614,110.219z"/>
	<path fill-rule="evenodd" clip-rule="evenodd" fill="none" d="M93.576,562.794c-0.511,3.208-0.656,6.396-1.642,9.3
		c-0.45,1.328-2.562,2.906-3.902,2.891c-1.326-0.015-3.696-1.828-3.768-2.969c-0.387-6.16-0.451-12.374-0.028-18.528
		c0.098-1.437,2.516-2.714,3.865-4.065c1.381,1.416,3.419,2.607,3.994,4.297C93.076,556.6,93.138,559.794,93.576,562.794z"/>
	<path fill-rule="evenodd" clip-rule="evenodd" fill="none" d="M93.672,280.559c-0.61,2.957-0.877,6.472-2.107,9.608
		c-1.309,3.336-4.192,3.396-6.48,0.52c-0.699-0.879-1.554-2.004-1.549-3.013c0.022-5.584,0.04-11.195,0.651-16.731
		c0.15-1.358,2.508-3.424,3.864-3.436c1.385-0.011,3.519,1.857,4.025,3.346C93.062,273.752,93.141,276.961,93.672,280.559z"/>
	<path fill-rule="evenodd" clip-rule="evenodd" fill="none" d="M93.543,449.837c-0.468,2.971-0.641,6.303-1.641,9.364
		c-0.424,1.297-2.611,2.827-3.951,2.785c-1.318-0.041-3.618-1.873-3.691-3.033c-0.387-6.128-0.479-12.312-0.026-18.428
		c0.11-1.492,2.661-2.803,4.091-4.196c1.341,1.497,3.293,2.788,3.884,4.538C93.125,443.588,93.117,446.622,93.543,449.837z"/>
	<path fill-rule="evenodd" clip-rule="evenodd" fill="none" d="M511.566,247.792c0.641-3.666,0.849-6.837,1.844-9.738
		c0.511-1.49,2.266-3.13,3.759-3.505c1.013-0.255,3.212,1.286,3.74,2.515c2.912,6.78,2.92,13.767,0.028,20.557
		c-0.505,1.186-2.487,2.417-3.769,2.398c-1.173-0.017-2.947-1.484-3.358-2.688C512.718,254.129,512.217,250.725,511.566,247.792z"/>
	<path fill-rule="evenodd" clip-rule="evenodd" fill="none" d="M93.656,505.989c-0.571,3.343-0.806,6.649-1.805,9.706
		c-0.459,1.4-2.408,3.177-3.705,3.195c-1.271,0.019-3.622-1.918-3.688-3.097c-0.363-6.598-0.33-13.234-0.011-19.837
		c0.047-0.96,2.352-2.507,3.622-2.518c1.279-0.011,3.351,1.315,3.71,2.479C92.784,499.167,93.083,502.633,93.656,505.989z"/>
	<path fill-rule="evenodd" clip-rule="evenodd" fill="none" d="M511.55,473.692c0.662-3.419,0.873-6.604,1.99-9.432
		c0.592-1.501,2.668-3.106,4.238-3.295c1.103-0.133,3.124,1.816,3.63,3.231c2.28,6.373,2.394,12.907-0.238,19.228
		c-0.498,1.195-2.279,2.675-3.375,2.602c-1.444-0.096-3.58-1.308-4.033-2.546C512.604,480.311,512.213,476.862,511.55,473.692z"/>
	<path fill-rule="evenodd" clip-rule="evenodd" fill="none" d="M523.501,303.416c-0.747,3.602-1.073,6.925-2.212,9.94
		c-0.586,1.552-2.524,3.375-4.028,3.549c-1.184,0.137-3.428-1.839-3.836-3.267c-1.878-6.563-2.515-13.275,0.516-19.727
		c0.525-1.117,2.051-2.545,3.027-2.482c1.377,0.089,3.4,1.143,3.864,2.299C522.101,296.886,522.696,300.315,523.501,303.416z"/>
	<path fill-rule="evenodd" clip-rule="evenodd" fill="none" d="M93.639,393.674c-0.578,2.896-0.8,6.43-2.035,9.564
		c-1.47,3.729-4.222,3.74-6.589,0.435c-0.661-0.925-1.602-2.002-1.59-2.999c0.064-5.587,0.133-11.2,0.786-16.734
		c0.161-1.364,2.509-3.436,3.845-3.43c1.39,0.005,3.499,1.886,4.001,3.38C93.033,386.798,93.106,390.009,93.639,393.674z"/>
	<path fill-rule="evenodd" clip-rule="evenodd" fill="none" d="M93.59,336.083c-0.484,3.29-0.576,6.485-1.538,9.394
		c-0.5,1.509-2.514,3.435-3.892,3.474c-1.337,0.038-3.568-1.868-3.965-3.316c-1.757-6.405-2.216-12.979,0.417-19.296
		c0.529-1.27,2.402-2.957,3.418-2.81c1.452,0.211,3.421,1.694,3.864,3.059C92.893,329.658,93.089,332.991,93.59,336.083z"/>
	<path fill-rule="evenodd" clip-rule="evenodd" fill="none" d="M93.597,223.652c-0.556,3.359-0.803,6.683-1.771,9.78
		c-0.372,1.191-2.379,2.569-3.653,2.582c-1.241,0.012-3.212-1.364-3.63-2.561c-2.334-6.689-2.428-13.562,0.056-20.223
		c0.487-1.306,2.625-2.67,4.055-2.73c1.099-0.047,2.949,1.732,3.298,3.018C92.849,216.814,93.096,220.288,93.597,223.652z"/>
	<path fill-rule="evenodd" clip-rule="evenodd" fill="none" d="M523.31,134.25c-0.563,3.212-0.639,6.302-1.74,8.967
		c-0.687,1.66-2.795,3.411-4.513,3.715c-1.053,0.186-3.611-2.216-3.709-3.583c-0.426-5.972-0.492-12.016,0.001-17.976
		c0.123-1.479,2.68-3.482,4.402-3.827c1.007-0.201,3.181,2.186,3.758,3.792C522.548,128.23,522.781,131.413,523.31,134.25z"/>
	<path fill-rule="evenodd" clip-rule="evenodd" fill="none" d="M523.285,586.535c-0.504,3.229-0.595,6.29-1.562,9.044
		c-0.535,1.523-2.481,3.437-3.89,3.521c-1.43,0.085-3.831-1.563-4.332-2.976c-2.206-6.218-2.351-12.688,0.112-18.872
		c0.551-1.384,2.848-2.782,4.385-2.833c1.208-0.041,3.14,1.769,3.594,3.14C522.566,580.497,522.793,583.682,523.285,586.535z"/>
	<path fill-rule="evenodd" clip-rule="evenodd" fill="none" d="M523.423,360.941c-0.707,2.995-1.246,6.42-2.411,9.615
		c-0.425,1.168-2.329,2.455-3.576,2.474c-1.182,0.017-2.929-1.298-3.49-2.474c-3.065-6.428-2.541-13.106-0.306-19.612
		c0.488-1.422,2.697-3.363,3.819-3.188c1.541,0.242,3.461,2.029,4.04,3.591C522.564,354.217,522.771,357.406,523.423,360.941z"/>
	<path fill-rule="evenodd" clip-rule="evenodd" fill="none" d="M511.63,190.425c0.613-2.879,1.048-6.134,2.085-9.183
		c0.419-1.231,2.11-2.728,3.308-2.807c1.271-0.085,3.335,1.054,3.859,2.203c3.164,6.93,2.818,14.046-0.067,20.975
		c-0.454,1.09-2.677,2.527-3.373,2.216c-1.653-0.738-3.567-2.187-4.133-3.787C512.293,197.164,512.188,193.962,511.63,190.425z"/>
	<path fill-rule="evenodd" clip-rule="evenodd" fill="none" d="M44.09,285.272c-0.188-3.874,2.194-5.252,5.522-5.374
		c3.726-0.137,5.509,2.103,5.474,6.491c-0.029,3.641-2.337,6.723-5.083,6.789C47.061,293.25,44,289.159,44.09,285.272z"/>
	<path fill-rule="evenodd" clip-rule="evenodd" fill="none" d="M47.677,339.656c-1.929-0.442-2.966-0.681-4.004-0.919
		c0.47-0.827,0.928-1.661,1.411-2.48c0.332-0.563,0.699-1.105,1.05-1.658c1.889-2.98,3.777-5.96,5.666-8.94
		c-0.241,3.923-0.237,7.887-0.891,11.738C50.736,338.416,48.537,339.091,47.677,339.656z"/>
	<path fill-rule="evenodd" clip-rule="evenodd" fill="none" d="M47.707,566.009c-1.864-0.083-2.986-0.134-4.107-0.184
		c0.511-1.132,0.97-2.29,1.541-3.39c1.652-3.177,3.321-6.346,5.057-9.477c0.282-0.51,0.938-0.813,1.421-1.211
		c0.08,0.559,0.268,1.126,0.224,1.675c-0.219,2.749-0.792,5.505-0.678,8.235C51.297,564.867,50.843,566.922,47.707,566.009z"/>
	<path fill-rule="evenodd" clip-rule="evenodd" fill="none" d="M481.087,73.602c0,0.989,0.005,1.979-0.001,2.968
		c-0.027,4.31-2.762,6.177-6.849,4.541c-0.382-0.153-0.691-1.509-0.445-2.026c1.043-2.196,2.254-4.319,3.509-6.406
		c1.112-1.851,2.363-3.617,3.554-5.421c0.112,2.113,0.225,4.227,0.337,6.341C481.157,73.599,481.122,73.6,481.087,73.602z"/>
	<path fill-rule="evenodd" clip-rule="evenodd" fill="none" d="M481.08,582.667c0,1.657,0.307,3.398-0.108,4.944
		c-0.273,1.016-1.485,2.308-2.461,2.488c-1.707,0.316-3.555-0.126-5.344-0.251c0.71-1.599,1.371-3.221,2.145-4.787
		c0.576-1.168,1.26-2.289,1.965-3.386c1.173-1.824,2.4-3.612,3.605-5.415c0.099,2.134,0.198,4.268,0.297,6.402
		C481.146,582.665,481.113,582.666,481.08,582.667z"/>
	<path fill-rule="evenodd" clip-rule="evenodd" fill="none" d="M481.087,130.096c0,0.83,0.005,1.659-0.001,2.488
		c-0.027,4.249-3.03,6.272-6.888,4.517c-0.35-0.159-0.528-1.571-0.238-2.103c1.096-2.006,2.413-3.892,3.656-5.815
		c1.082-1.674,2.177-3.338,3.267-5.007c0.097,1.973,0.194,3.944,0.291,5.916C481.146,130.094,481.116,130.095,481.087,130.096z"/>
	<path fill-rule="evenodd" clip-rule="evenodd" fill="none" d="M56.379,45.904c-1.093-1.52-3.223-3.192-3.026-4.521
		c0.268-1.811,2.31-3.359,3.591-5.021c1.377,1.363,3.671,2.601,3.881,4.124c0.224,1.625-1.522,3.521-2.409,5.299
		C57.736,45.825,57.058,45.864,56.379,45.904z"/>
	<path fill-rule="evenodd" clip-rule="evenodd" fill="none" d="M487.822,8.652c-2.36,2.033-3.666,4.035-5.325,4.392
		c-2.852,0.613-4.281-1.911-4.245-4.277c0.034-2.26,1.229-4.961,4.161-4.357C484.087,4.754,485.432,6.695,487.822,8.652z"/>
</g>
<radialGradient id="SVGID_2_" cx="278.9287" cy="770.1675" r="132.2398" gradientTransform="matrix(0.9993 -0.0367 0.0379 1.0334 -29.0283 -15.4592)" gradientUnits="userSpaceOnUse">
	<stop  offset="0" style="stop-color:#FFFFFF"/>
	<stop  offset="1" style="stop-color:#000000"/>
</radialGradient>
<circle opacity="0.15" fill="url(#SVGID_2_)" cx="276.232" cy="769.692" r="136.891"/>
<radialGradient id="SVGID_3_" cx="297.5928" cy="745.0366" r="137.4765" gradientTransform="matrix(0.9599 -0.2804 0.2024 0.6928 -138.849 312.2919)" gradientUnits="userSpaceOnUse">
	<stop  offset="0" style="stop-color:#FFFFFF"/>
	<stop  offset="1" style="stop-color:#FFFFFF;stop-opacity:0"/>
</radialGradient>
<ellipse opacity="0.5" fill="url(#SVGID_3_)" cx="274.259" cy="723.926" rx="134.161" ry="98.413"/>
</svg>
